<svg height="12" viewBox="0 0 12 12" width="12" xmlns="http://www.w3.org/2000/svg"><path d="m552.830562 55.8215041-4.496771-8.9921589c-.369046-.7399778-1.268087-1.0406766-2.008069-.6716316-.290838.145049-.526582.380793-.671631.6716316l-4.495857 8.9921589c-.369862.7407102-.06923 1.6410019.67148 2.0108695.207569.1036459.436361.1576994.668368.1579046h8.990776c.51955.0001363 1.002172-.2685883 1.275693-.7103083.272715-.4420353.297675-.9936024.066-1.4584588zm-5.088001.2958461v-.0000044c.000252.2067248-.167123.3745164-.373846.3747748-.000154 0-.000308 0-.000462 0h-.750001c-.206725.0002548-.374514-.1671216-.37477-.3738464 0-.0003079 0-.0006158 0-.0009237v-.7495391c0-.2067694.167077-.3747696.37477-.3747696h.750001c.206769 0 .374308.1675385.374308.3747696v.7495391zm-.000004-2.9976949v.0000001c.000509.2067237-.166661.3747204-.373385.3752313-.000308 0-.000617 0-.000925 0h-.75c-.20698 0-.37477-.1677893-.37477-.3747696 0-.0001539 0-.0003079 0-.0004618v-3.74677c0-.2072311.167077-.3752313.37477-.3752313h.750001c.206769 0 .374309.1675385.374309.3752313z" fill="#ff5570" transform="translate(-541 -46)"/></svg>