<svg height="25" viewBox="0 0 78 25" width="78" xmlns="http://www.w3.org/2000/svg" xmlns:xlink="http://www.w3.org/1999/xlink"><defs><path id="a" d="m17.790295 0h53.209705c2.209139 0 4 1.790861 4 4v13c0 2.209139-1.790861 4-4 4h-53.209705c-.8939172 0-1.762073-.2994343-2.4659175-.8505158l-9.3074728-7.287371c-1.30455907-1.0214165-1.5340915-2.90699225-.51267503-4.21155133.14953698-.1909895.32168553-.36313805.51267503-.51267503l9.3074728-7.28737106c.7038445-.55108153 1.5720003-.85051578 2.4659175-.85051578z"/><filter id="b" height="133.3%" width="107.1%" x="-2.3%" y="-11.9%"><feOffset dx="0" dy="1" in="SourceAlpha" result="shadowOffsetOuter1"/><feGaussianBlur in="shadowOffsetOuter1" result="shadowBlurOuter1" stdDeviation="1"/><feColorMatrix in="shadowBlurOuter1" type="matrix" values="0 0 0 0 0   0 0 0 0 0   0 0 0 0 0  0 0 0 0.118935752 0"/></filter></defs><g fill="none" fill-rule="evenodd" transform="translate(1 1)"><use fill="#000" filter="url(#b)" xlink:href="#a"/><g fill="#736af2"><use fill-rule="evenodd" xlink:href="#a"/><path d="m0 11c0 2.209139 1.790861 4 4 4s4-1.790861 4-4-1.790861-4-4-4-4 1.790861-4 4" fill-rule="nonzero" stroke="#fff" stroke-width="1.5"/></g></g></svg>