<svg height="12" viewBox="0 0 12 12" width="12" xmlns="http://www.w3.org/2000/svg"><path d="m5.67958778.17319628-4.14820151 3.52305147h-.79003353c-.40966128 0-.74135274.33738293-.74135274.75491866v3.01955402c0 .41696691.33170898.75490143.74135274.75490143h.66051007l4.27774249 3.60261824s.9875419.6654922.9875419-.6234164h.00057807v-10.40245383c0-1.30044032-.98815501-.62915635-.98815501-.62915635zm3.21049654 4.02591114c-.4530343-.27277806-.74138778.62919082-.74138778.62919082s1.15281832 1.44749053 0 2.51667711c-.22621936.29296277.2063021.90138282.74138778.62862199 1.23485218-1.00633989 1.15222268-2.91463142 0-3.77447268zm.61713705-2.13895921c-.16469834-.14648139-.96702906.39907473-.4934644.8811981 2.44859593 2.07609529 2.48963913 4.02591114 0 6.16487036-.37040485.35637828.12305955 1.02767953.4934644.88061204 3.39511213-1.57264955 3.25152223-6.45841919 0-7.9266805z" fill="#736af2" fill-rule="evenodd"/></svg>