<svg height="16" viewBox="0 0 16 16" width="16" xmlns="http://www.w3.org/2000/svg"><g fill="none" fill-rule="evenodd"><path d="m0 4 4 3.75354004 4-7.75354004 4 7.50708008 4-3.75354004v11.24645996c0 .5522847-.4477153 1-1 1h-14c-.55228475 0-1-.4477153-1-1z" fill="#dbac6a"/><path d="m8 0 4 7.50708008v1.43536013z" fill="#ffc065"/><path d="m4 0 4 7.75354004v1.43536013z" fill="#ffc065" transform="matrix(-1 0 0 1 12 0)"/><g fill="#bc8b45"><path d="m16 3.75354004-4 3.75354004v1.43536013z"/><path d="m4 4-4 3.75354004v1.43536013z" transform="matrix(-1 0 0 1 4 0)"/><path d="m7.96233195 12 2.03766805-2.78678226-2.03766805-4.21321774-1.96233195 4.21321774z"/></g><path d="m8 9.22794596-.03766805-4.22794596-1.96233195 4.21321774z" fill="#ffc065"/><path d="m8 12v-2.77205404h2z" fill="#a06a1d"/><path d="m0 13h16v1h-16z" fill="#bc8b45"/></g></svg>