<svg height="20" viewBox="0 0 20 20" width="20" xmlns="http://www.w3.org/2000/svg"><path d="m10.1738785 18.3564093c-3.42222707 0-6.36166109-2.1416933-7.59388783-5.177806l-1.49444553.6253185c1.4733342 3.6343072 4.99334057 6.1960782 9.08888806 6.1960782.6422227 0 1.2711115-.0638886 1.8788889-.184316l-.331666-1.6102215c-.5011114.0989427-1.0188889.1509583-1.5477776.1509583zm0-16.71283193c.5683341 0 1.1255548.05936566 1.6611116.172443l.4411126-1.58421255v.00000028c-.6904825-.15414813-1.3953186-.2318081-2.1022269-.2318081-4.11611386 0-7.65166124 2.59059254-9.11111458 6.25318451l1.54500022.49753998c1.25055097-2.99824728 4.17000061-5.10714366 7.56666126-5.10714366zm7.8722277 2.37800478-1.3055549.96568464-.0000001-.00000021c1.0702208 1.44491146 1.6483264 3.20554317 1.6466662 5.01497462 0 2.2219759-.8583341 4.2460577-2.2527738 5.7448931l1.2555549 1.0414427h.0000004c1.6786545-1.8478379 2.6106839-4.272057 2.6100007-6.78858826 0-2.24062041-.7283344-4.31163148-1.9533405-5.97840659zm-5.8250009 1.67580976c-1.1111114-1.22123503-2.92111366-1.25402789-4.05554741-.04523102-.51777742.55294874-.7705548 1.21388456-.75000011 1.97885393.03277774 1.09119656.55944539 1.88217283 1.46666622 2.44415958-.02555547.0113077-.035.0169616-.04444453.0209192l.00000017-.0000001c-.0497584.0235325-.09976134.0465262-.15000002.0689772-.79444543.3324466-1.4250002.8616485-1.88888894 1.593825l.00000015-.0000003c-.34340044.5317282-.55237312 1.1415745-.60833407 1.7753148-.01833334.176966.12333342.3070042.29055473.2646009l7.44277451.0045231c.1111112.0050885.195-.0588002.225-.176966.0094445-.0469271.0188889-.1040312.0094445-.1509583-.0605555-.2764733-.095-.5619947-.1877778-.8265956-.4038887-1.1641308-1.1694455-1.9856379-2.2833401-2.4724444-.0722223-.0327924-.1438889-.0610617-.2205548-.0961156 1.6083343-.84355655 1.9333343-3.0887069.7544455-4.38287017zm2.9233403-2.04725793h.0000001c.7287618-.00062382 1.3193869-.60170102 1.3200002-1.3433588v.00010071c-.0002517-.74187841-.590922-1.34334461-1.3199006-1.3440244-.7289786.00062388-1.3196935.60204461-1.3200002 1.34392303v.0000069c.0006165.74165778.5912443 1.3427324 1.3200061 1.34335256zm-12.50388852 6.32384648v-.00000642c-.00061652-.74187841-.59158212-1.34304447-1.32056269-1.34335256h-.00000002c-.72875987.00062705-1.31938105.60170273-1.31999437 1.34335853v-.00010055c.00025178.74187844.59092196 1.34334464 1.31990058 1.34402444h-.00000004c.72919542-.000312 1.32024824-.601824 1.32055488-1.34392306zm12.17166192 6.61615494h.0000001c-.7291954.0003131-1.3202483.6018251-1.3205549 1.3439241v.0000066c.0006166.7418784.5915841 1.3430444 1.3205627 1.3433525h.0000001c.7287618-.0006235 1.3193869-.6017007 1.3200006-1.3433585v.0000048c.0006158-.7416041-.5896197-1.3433009-1.3183288-1.3439295-.0005557 0-.0011115 0-.0016672 0z" fill="#666" fill-rule="evenodd"/></svg>