<svg height="20" viewBox="0 0 20 20" width="20" xmlns="http://www.w3.org/2000/svg"><path d="m4.03508772 6.66533915c2.80701754-2.79007036 6.49122808-4.18510555 15.78947368-3.48758796-.7200838-.02602677-1.4225807-.00349613-2.1065429.06106929l-.409138.04385028c.7574421-.07000673 1.6364686-.10491957 2.6911195-.10491957-3.1149302.2135258-4.059712 1.93044748-4.9682575 3.83012448l-.1818582.38198083c-.5174789 1.08696576-1.0690035 2.20434478-2.0428668 3.1118294-2.8070175 2.615691-4.91228066 3.1388292-7.54385961 3.3132086-1.75438596.1162529-3.50877193 1.5112881-5.26315789 4.1851055 3.15789474-6.2776583 7.66081871-10.86964912 13.5087719-13.77597242.1240836-.05481531.2481672-.10747676.3731023-.15798434-6.32443285 2.14062927-10.4317392 7.44337666-11.25029525 8.52819546-1.05263158 1.3950352-1.40350877-3.13882919 1.40350877-5.92889955z" fill="#666" fill-rule="evenodd"/></svg>