<svg height="40" viewBox="0 0 40 40" width="40" xmlns="http://www.w3.org/2000/svg"><g fill="none" fill-rule="evenodd"><circle cx="20" cy="20" fill="#000" fill-opacity=".45" r="20"/><path d="m21.2892255 18.2603959c-.4336389 0-.9374253.2231965-1.2902883.5165405-.3528631-.293344-.8566494-.5165405-1.2902883-.5165405-1.1967584 0-2.0640362.8098844-2.0640362 1.8068288 0 .3847482.1296666.7397369.2572074 1.0330809l3.0971171 2.8356583 3.097117-2.837784c.1296665-.2912183.2572113-.6483327.2572113-1.0330809.0021218-.9969444-.865156-1.8047031-2.06404-1.8047031zm-1.2902883-6.7107745c-.8545238 0-1.5474957.6929719-1.5474957 1.5474956 0 .8545238.6929719 1.5474957 1.5474957 1.5474957.8545237 0 1.5475005-.6929719 1.5475005-1.5474957.0021208-.8545237-.6908511-1.5474956-1.5475005-1.5474956zm6.1942341 17.5474956h-12.3863426c-1.0394579 0-1.8068287-.7546167-1.8068287-1.8068287l1.0330809-12.3863425c.1105354-1.0500864.8779062-1.8047031 1.8068288-1.8068288h2.0640361c.0042514.0021257.0042514.0021257 0 0 .0042514-1.7111731 1.3880696-3.097117 3.097117-3.097117 1.7090475 0 3.0928657 1.3859439 3.0971171 3.097117-.0042514.0021257-.0042514.0021257 0 0h2.0640361c.9289226.0021257 1.6962934.7567424 1.8068288 1.8068288l1.0309552 12.3863425c-.0021257 1.052212-.7694965 1.8068287-1.8068287 1.8068287z" fill="#fff" fill-rule="nonzero"/></g></svg>