<svg height="16" viewBox="0 0 16 16" width="16" xmlns="http://www.w3.org/2000/svg"><path d="m14.5264875 8.01140638c.6086404.64301546.9746335 1.46599435.9746335 2.36176742 0 1.2860309-.7522068 2.4204073-1.8966934 3.0876875-.0141544.5762874.032353 1.4073545.3943019 1.6338254 0 0-1.0170967.0525736-1.8481639-1.0919131-.3033092.0586398-.6187507.0909928-.9422805.0909928-1.34467068 0-2.54375296-.5358462-3.33033476-1.3729795 3.25956266-.0505516 5.97114666-2.048348 6.64853716-4.70938052zm-7.58475148-8.01140638c3.83382798 0 6.94173598 2.69338549 6.93971498 6.01967612 0 .44687552-.0586408.88161868-.16581 1.3022074-.6773905 2.66103251-3.3889746 4.65882898-6.64853719 4.70938048l-.12738985.0020221c-.52371385 0-1.03327326-.0525736-1.52261207-.1476105-1.20838376 1.6651674-2.66244795 1.7628936-2.94117695 1.7657872l-.04201514-.0003195c.58098341-.3682234.65782174-1.70885.633557-2.6430423-1.85018597-1.07978062-3.0674668-2.91379011-3.0674668-4.992469 0-3.32224651 3.10790803-6.015632 6.94173602-6.015632zm-3.06544474 4.958094c-.51158148 0-.92610402.41452255-.92610402.92610402 0 .51158148.41452254.92610402.92610402.92610402.51158147 0 .92610401-.41452254.92610401-.92610402 0-.51158147-.41452254-.92610402-.92610401-.92610402zm3.06544474 0c-.51158148 0-.92610402.41452255-.92610402.92610402 0 .51158148.41452254.92610402.92610402.92610402s.92610402-.41452254.92610402-.92610402c0-.51158147-.41452254-.92610402-.92610402-.92610402zm3.06544478 0c-.51158152 0-.92610406.41452255-.92610406.92610402 0 .51158148.41452254.92610402.92610406.92610402.5115814 0 .926104-.41452254.926104-.92610402 0-.51158147-.4145226-.92610402-.926104-.92610402z" fill="#666"/></svg>