<svg height="10" viewBox="0 0 11 10" width="11" xmlns="http://www.w3.org/2000/svg"><path d="m3.66699968 7.96837945c-.72828085.51174963-2.0037535 1.77075098-1.98138095 1.77075098v-1.77075098c-1.03587249 0-1.68561873-.53913391-1.68561873-1.77075099v-4.42687747c0-.89869359.8531264-1.77075099 1.68561873-1.77075099h7.58528428c.83250729 0 1.68561869.87205867 1.68561869 1.77075099v4.42687747c0 1.31502222-.6631733 1.77075099-1.68561869 1.77075099-2.80195166 0-5.13369089 0-5.60390333 0zm-.29576222-4.42687747c-.46546066 0-.84280937.39639236-.84280937.88537549 0 .48903189.37731938.88537549.84280937.88537549.46546066 0 .84280936-.39632787.84280936-.88537549 0-.48899886-.37736483-.88537549-.84280936-.88537549zm2.52842809 0c-.46551958 0-.84280936.39639236-.84280936.88537549 0 .48903189.37727331.88537549.84280936.88537549.46548963 0 .84280937-.39632787.84280937-.88537549 0-.48899886-.37733471-.88537549-.84280937-.88537549zm2.5284281 0c-.46543349 0-.84280937.39639236-.84280937.88537549 0 .48903189.37736122.88537549.84280937.88537549.46544814 0 .84280936-.39632787.84280936-.88537549 0-.48899886-.37737588-.88537549-.84280936-.88537549z" fill="#9d97f6" fill-rule="evenodd"/></svg>