<svg width="144" height="245" viewBox="0 0 144 245" xmlns="http://www.w3.org/2000/svg" xmlns:xlink="http://www.w3.org/1999/xlink"><defs><linearGradient x1="33.743%" y1="100%" x2="66.136%" y2="-10.927%" id="c"><stop stop-color="#E1DFFF" offset="0%"/><stop stop-color="#F5F6FF" offset="26.471%"/><stop stop-color="#DAE4FF" offset="100%"/></linearGradient><path d="M3 0h131v235H3a3 3 0 0 1-3-3V3a3 3 0 0 1 3-3z" id="a"/><filter x="-6.7%" y="-2.6%" width="113.4%" height="107.7%" filterUnits="objectBoundingBox" id="b"><feOffset dy="3" in="SourceAlpha" result="shadowOffsetOuter1"/><feGaussianBlur stdDeviation="2.5" in="shadowOffsetOuter1" result="shadowBlurOuter1"/><feColorMatrix values="0 0 0 0 0 0 0 0 0 0 0 0 0 0 0 0 0 0 0.04 0" in="shadowBlurOuter1"/></filter><linearGradient x1="5.379%" y1="60.201%" y2="92.153%" id="g"><stop stop-color="#FFF" stop-opacity=".5" offset="0%"/><stop stop-color="#6B6B6B" stop-opacity=".5" offset="63.359%"/><stop stop-opacity=".5" offset="100%"/></linearGradient><path d="M108.103 80.038c1.048 0 1.897.849 1.897 1.896v17.17c0 1.047-.85 1.896-1.897 1.896H17.07a1.897 1.897 0 0 1-1.897-1.897V81.934c0-1.047.85-1.896 1.897-1.896h91.034zM81.552 0C77.025 40.738 42.558 72.415.709 72.415L0 72.412c20.314-7.218 36.917-22.295 46.171-41.585l.293-.617a3.025 3.025 0 0 0-2.898-4.306l-16.838.888c10.08-4.439 18.458-8.41 25.134-11.911L81.552 0zm26.551 49.547c1.048 0 1.897.85 1.897 1.897v17.169c0 1.047-.85 1.896-1.897 1.896H66.38a1.897 1.897 0 0 1-1.896-1.896v-17.17c0-1.047.849-1.896 1.896-1.896h41.724zm0-30.49c1.048 0 1.897.849 1.897 1.896v17.17c0 1.047-.85 1.896-1.897 1.896H87.241a1.897 1.897 0 0 1-1.896-1.897V20.953c0-1.047.849-1.896 1.896-1.896h20.862z" id="f"/><filter x="-5.5%" y="-5.9%" width="112.7%" height="123.8%" filterUnits="objectBoundingBox" id="e"><feMorphology radius="3" in="SourceAlpha" result="shadowSpreadOuter1"/><feOffset dy="10" in="shadowSpreadOuter1" result="shadowOffsetOuter1"/><feGaussianBlur stdDeviation="4" in="shadowOffsetOuter1" result="shadowBlurOuter1"/><feColorMatrix values="0 0 0 0 0.597332317 0 0 0 0 0.703920821 0 0 0 0 1 0 0 0 0.743444056 0" in="shadowBlurOuter1"/></filter><filter x="-3.6%" y="-4%" width="109.1%" height="119.8%" filterUnits="objectBoundingBox" id="h"><feGaussianBlur stdDeviation="3" in="SourceAlpha" result="shadowBlurInner1"/><feOffset dy="2" in="shadowBlurInner1" result="shadowOffsetInner1"/><feComposite in="shadowOffsetInner1" in2="SourceAlpha" operator="arithmetic" k2="-1" k3="1" result="shadowInnerInner1"/><feColorMatrix values="0 0 0 0 0.752344591 0 0 0 0 0.734794207 0 0 0 0 1 0 0 0 1 0" in="shadowInnerInner1"/></filter></defs><g transform="translate(5 2)" fill="none" fill-rule="evenodd"><mask id="d" fill="#fff"><use xlink:href="#a"/></mask><use fill="#000" filter="url(#b)" xlink:href="#a"/><use fill="url(#c)" xlink:href="#a"/><path d="M134 4v82.909A109.976 109.976 0 0 1 108.035 90C54.189 90 9.392 51.203 0 0h130a4 4 0 0 1 4 4z" fill="#FFE5E5" opacity=".572" style="mix-blend-mode:screen" mask="url(#d)"/><path d="M133.999 4L134 44.23A44.808 44.808 0 0 1 106 54C81.146 54 61 33.853 61 9c0-3.082.31-6.092.9-9H130a4 4 0 0 1 4 4z" fill="#FFE5E5" opacity=".901" style="mix-blend-mode:screen" mask="url(#d)"/><path fill="#8479F3" opacity=".089" mask="url(#d)" d="M0 213.022l40.391-26.43 30.765 19.51L139 156.669v81H0v-24.647z"/><g mask="url(#d)"><g transform="translate(24 67)"><use fill="#000" filter="url(#e)" xlink:href="#f"/><use fill="#736AF2" xlink:href="#f"/><use fill-opacity=".72" fill="url(#g)" style="mix-blend-mode:overlay" xlink:href="#f"/><use fill="#000" filter="url(#h)" xlink:href="#f"/></g></g><path d="M-1 237.5l20.5-29 23 14.5 27-32.5c22 17 33 24.833 33 23.5 0-1.333 12.167-13.333 36.5-36v59.5H-1z" fill="#FFE5E5" opacity=".901" style="mix-blend-mode:screen" mask="url(#d)"/></g></svg>