<svg width="144" height="245" viewBox="0 0 144 245" xmlns="http://www.w3.org/2000/svg" xmlns:xlink="http://www.w3.org/1999/xlink"><defs><linearGradient x1="66.257%" y1="0%" x2="33.743%" y2="100%" id="c"><stop stop-color="#FFE5E5" offset="0%"/><stop stop-color="#FFF5F5" offset="69.466%"/><stop stop-color="#FFE2E2" offset="100%"/></linearGradient><path d="M3 0h131v235H3a3 3 0 0 1-3-3V3a3 3 0 0 1 3-3z" id="a"/><filter x="-6.7%" y="-2.6%" width="113.4%" height="107.7%" filterUnits="objectBoundingBox" id="b"><feOffset dy="3" in="SourceAlpha" result="shadowOffsetOuter1"/><feGaussianBlur stdDeviation="2.5" in="shadowOffsetOuter1" result="shadowBlurOuter1"/><feColorMatrix values="0 0 0 0 0 0 0 0 0 0 0 0 0 0 0 0 0 0 0.04 0" in="shadowBlurOuter1"/></filter><radialGradient cx="42.11%" cy="29.93%" fx="42.11%" fy="29.93%" r="72.532%" id="g"><stop stop-color="#FFF" stop-opacity=".5" offset="0%"/><stop stop-color="#6B6B6B" stop-opacity=".5" offset="74.906%"/><stop stop-opacity=".5" offset="100%"/></radialGradient><path d="M79.54 132.018l-29.744 11.665a4 4 0 0 1-5.454-3.962l1.903-31.893a4 4 0 0 0-.903-2.778L25.057 80.367a4 4 0 0 1 2.083-6.411l30.92-8.046a4 4 0 0 0 2.363-1.717l17.207-26.92a4 4 0 0 1 6.74 0l17.207 26.92a4 4 0 0 0 2.363 1.717l30.92 8.046a4 4 0 0 1 2.083 6.41l-20.285 24.684a4 4 0 0 0-.903 2.778l1.903 31.893a4 4 0 0 1-5.454 3.962L82.46 132.018a4 4 0 0 0-2.92 0z" id="f"/><filter x="-10.9%" y="-6%" width="121.9%" height="119.5%" filterUnits="objectBoundingBox" id="e"><feMorphology radius="4" in="SourceAlpha" result="shadowSpreadOuter1"/><feOffset dy="10" in="shadowSpreadOuter1" result="shadowOffsetOuter1"/><feGaussianBlur stdDeviation="10" in="shadowOffsetOuter1" result="shadowBlurOuter1"/><feColorMatrix values="0 0 0 0 1 0 0 0 0 0 0 0 0 0 0 0 0 0 0.744727928 0" in="shadowBlurOuter1"/></filter><filter x="-5.4%" y="-.5%" width="110.8%" height="108.4%" filterUnits="objectBoundingBox" id="h"><feGaussianBlur stdDeviation="3" in="SourceAlpha" result="shadowBlurInner1"/><feOffset dy="2" in="shadowBlurInner1" result="shadowOffsetInner1"/><feComposite in="shadowOffsetInner1" in2="SourceAlpha" operator="arithmetic" k2="-1" k3="1" result="shadowInnerInner1"/><feColorMatrix values="0 0 0 0 1 0 0 0 0 0.650285823 0 0 0 0 0.650285823 0 0 0 0.96017264 0" in="shadowInnerInner1"/></filter><path d="M12.269 161.822l-6.193 2.429a.634.634 0 0 1-.864-.628l.396-6.64a.634.634 0 0 0-.143-.44l-4.224-5.14a.634.634 0 0 1 .33-1.015l6.438-1.676a.634.634 0 0 0 .374-.272l3.583-5.605a.634.634 0 0 1 1.068 0l3.583 5.605c.086.135.22.232.374.272l6.438 1.676a.634.634 0 0 1 .33 1.015l-4.224 5.14a.634.634 0 0 0-.143.44l.396 6.64a.634.634 0 0 1-.864.628l-6.193-2.43a.634.634 0 0 0-.462 0z" id="j"/><filter x="-14.4%" y="-11.4%" width="128.7%" height="123.8%" filterUnits="objectBoundingBox" id="i"><feMorphology radius=".5" in="SourceAlpha" result="shadowSpreadOuter1"/><feOffset dy="1" in="shadowSpreadOuter1" result="shadowOffsetOuter1"/><feGaussianBlur stdDeviation="2" in="shadowOffsetOuter1" result="shadowBlurOuter1"/><feColorMatrix values="0 0 0 0 1 0 0 0 0 0 0 0 0 0 0 0 0 0 0.744727928 0" in="shadowBlurOuter1"/></filter><filter x="-10.4%" y="-7.4%" width="120.7%" height="115.8%" filterUnits="objectBoundingBox" id="k"><feGaussianBlur stdDeviation=".5" in="SourceAlpha" result="shadowBlurInner1"/><feOffset dy="1" in="shadowBlurInner1" result="shadowOffsetInner1"/><feComposite in="shadowOffsetInner1" in2="SourceAlpha" operator="arithmetic" k2="-1" k3="1" result="shadowInnerInner1"/><feColorMatrix values="0 0 0 0 1 0 0 0 0 0.650285823 0 0 0 0 0.650285823 0 0 0 0.96017264 0" in="shadowInnerInner1"/></filter><path d="M105.269 27.822l-6.193 2.429a.634.634 0 0 1-.864-.628l.396-6.64a.634.634 0 0 0-.143-.44l-4.224-5.14a.634.634 0 0 1 .33-1.015l6.438-1.676a.634.634 0 0 0 .374-.272l3.583-5.605a.634.634 0 0 1 1.068 0l3.583 5.605c.086.135.22.232.374.272l6.438 1.676a.634.634 0 0 1 .33 1.015l-4.224 5.14a.634.634 0 0 0-.143.44l.396 6.64a.634.634 0 0 1-.864.628l-6.193-2.43a.634.634 0 0 0-.462 0z" id="m"/><filter x="-14.4%" y="-11.4%" width="128.7%" height="123.8%" filterUnits="objectBoundingBox" id="l"><feMorphology radius=".5" in="SourceAlpha" result="shadowSpreadOuter1"/><feOffset dy="1" in="shadowSpreadOuter1" result="shadowOffsetOuter1"/><feGaussianBlur stdDeviation="2" in="shadowOffsetOuter1" result="shadowBlurOuter1"/><feColorMatrix values="0 0 0 0 1 0 0 0 0 0 0 0 0 0 0 0 0 0 0.744727928 0" in="shadowBlurOuter1"/></filter><filter x="-10.4%" y="-7.4%" width="120.7%" height="115.8%" filterUnits="objectBoundingBox" id="n"><feGaussianBlur stdDeviation=".5" in="SourceAlpha" result="shadowBlurInner1"/><feOffset dy="1" in="shadowBlurInner1" result="shadowOffsetInner1"/><feComposite in="shadowOffsetInner1" in2="SourceAlpha" operator="arithmetic" k2="-1" k3="1" result="shadowInnerInner1"/><feColorMatrix values="0 0 0 0 1 0 0 0 0 0.650285823 0 0 0 0 0.650285823 0 0 0 0.96017264 0" in="shadowInnerInner1"/></filter><path d="M45.338 13.48l-4.188 1.643a.444.444 0 0 1-.605-.439l.268-4.49a.444.444 0 0 0-.1-.309L37.857 6.41a.444.444 0 0 1 .23-.71l4.354-1.133a.444.444 0 0 0 .262-.19L45.126.584a.444.444 0 0 1 .748 0l2.423 3.79c.06.095.153.163.262.19L52.912 5.7a.444.444 0 0 1 .231.71l-2.856 3.476a.444.444 0 0 0-.1.308l.268 4.491a.444.444 0 0 1-.605.44l-4.188-1.643a.444.444 0 0 0-.324 0z" id="p"/><filter x="-13.6%" y="-8.7%" width="127.2%" height="122.7%" filterUnits="objectBoundingBox" id="o"><feMorphology radius=".5" in="SourceAlpha" result="shadowSpreadOuter1"/><feOffset dy="1" in="shadowSpreadOuter1" result="shadowOffsetOuter1"/><feGaussianBlur stdDeviation="1.5" in="shadowOffsetOuter1" result="shadowBlurOuter1"/><feColorMatrix values="0 0 0 0 1 0 0 0 0 0 0 0 0 0 0 0 0 0 0.744727928 0" in="shadowBlurOuter1"/></filter><filter x="-10.7%" y="-5.7%" width="121.3%" height="116.8%" filterUnits="objectBoundingBox" id="q"><feGaussianBlur stdDeviation=".5" in="SourceAlpha" result="shadowBlurInner1"/><feOffset dy="1" in="shadowBlurInner1" result="shadowOffsetInner1"/><feComposite in="shadowOffsetInner1" in2="SourceAlpha" operator="arithmetic" k2="-1" k3="1" result="shadowInnerInner1"/><feColorMatrix values="0 0 0 0 1 0 0 0 0 0.650285823 0 0 0 0 0.650285823 0 0 0 0.96017264 0" in="shadowInnerInner1"/></filter><linearGradient x1="11.218%" y1="6.055%" y2="101.973%" id="t"><stop stop-color="#FFFCFC" offset="0%"/><stop stop-color="#FFF7F7" offset="100%"/></linearGradient><radialGradient cx="37.765%" cy="-3.877%" fx="37.765%" fy="-3.877%" r="128.444%" gradientTransform="matrix(.5132 .83687 -.75038 .52356 .155 -.335)" id="u"><stop stop-color="#FFF" offset="0%"/><stop stop-color="#FFF" offset="10.372%"/><stop stop-color="#FFDADA" offset="37.169%"/><stop stop-color="#FFF" offset="43.566%"/><stop stop-color="#FFCBCB" offset="47.972%"/><stop stop-color="#FFE5E5" offset="54.014%"/><stop stop-color="#FFBEBE" offset="82.321%"/><stop stop-color="#FFF0F0" offset="100%"/></radialGradient><path d="M91.94 92.572c7.095 3.62 12.155 10.649 13.012 18.924l.041.437.005.081.002.081a1.905 1.905 0 0 1-1.756 1.9l-.149.005H58.927A1.927 1.927 0 0 1 57 112.058l.007-.15.035-.368c.844-8.294 5.909-15.342 13.015-18.968A17.595 17.595 0 0 0 81 96.365c4.055 0 7.79-1.365 10.771-3.66l.17-.133zM81 69c6.045 0 10.945 4.797 10.945 10.714 0 5.918-4.9 10.715-10.946 10.715-6.045 0-10.946-4.797-10.946-10.715 0-5.917 4.9-10.714 10.946-10.714z" id="s"/><filter x="-31.3%" y="-33.3%" width="175%" height="180%" filterUnits="objectBoundingBox" id="r"><feOffset dx="3" dy="3" in="SourceAlpha" result="shadowOffsetOuter1"/><feGaussianBlur stdDeviation="5.5" in="shadowOffsetOuter1" result="shadowBlurOuter1"/><feColorMatrix values="0 0 0 0 0.858157835 0 0 0 0 0.257529111 0 0 0 0 0.281692336 0 0 0 0.722383086 0" in="shadowBlurOuter1"/></filter><filter x="-27.1%" y="-28.9%" width="166.7%" height="171.1%" filterUnits="objectBoundingBox" id="v"><feGaussianBlur stdDeviation="3.5" in="SourceAlpha" result="shadowBlurInner1"/><feOffset dy="3" in="shadowBlurInner1" result="shadowOffsetInner1"/><feComposite in="shadowOffsetInner1" in2="SourceAlpha" operator="arithmetic" k2="-1" k3="1" result="shadowInnerInner1"/><feColorMatrix values="0 0 0 0 1 0 0 0 0 1 0 0 0 0 1 0 0 0 0.602846372 0" in="shadowInnerInner1"/></filter></defs><g transform="translate(5 2)" fill="none" fill-rule="evenodd"><mask id="d" fill="#fff"><use xlink:href="#a"/></mask><use fill="#000" filter="url(#b)" xlink:href="#a"/><use fill="url(#c)" xlink:href="#a"/><path d="M134 4v82.909A109.976 109.976 0 0 1 108.035 90C54.189 90 9.392 51.203 0 0h130a4 4 0 0 1 4 4z" fill="#FFE5E5" opacity=".572" style="mix-blend-mode:screen" mask="url(#d)"/><path d="M133.999 4L134 44.23A44.808 44.808 0 0 1 106 54C81.146 54 61 33.853 61 9c0-3.082.31-6.092.9-9H130a4 4 0 0 1 4 4z" fill="#FFE5E5" opacity=".901" style="mix-blend-mode:screen" mask="url(#d)"/><g mask="url(#d)"><g transform="translate(10 31)"><use fill="#000" filter="url(#e)" xlink:href="#f"/><use fill="#FF5E66" xlink:href="#f"/><use fill-opacity=".72" fill="url(#g)" style="mix-blend-mode:overlay" xlink:href="#f"/><use fill="#000" filter="url(#h)" xlink:href="#f"/></g><g opacity=".34" transform="translate(10 31)"><use fill="#000" filter="url(#i)" xlink:href="#j"/><use fill="#FF5E66" xlink:href="#j"/><use fill-opacity=".72" fill="url(#g)" style="mix-blend-mode:overlay" xlink:href="#j"/><use fill="#000" filter="url(#k)" xlink:href="#j"/></g><g opacity=".6" transform="translate(10 31)"><use fill="#000" filter="url(#l)" xlink:href="#m"/><use fill="#FF5E66" xlink:href="#m"/><use fill-opacity=".72" fill="url(#g)" style="mix-blend-mode:overlay" xlink:href="#m"/><use fill="#000" filter="url(#n)" xlink:href="#m"/></g><g opacity=".34" transform="translate(10 31)"><use fill="#000" filter="url(#o)" xlink:href="#p"/><use fill="#FF5E66" xlink:href="#p"/><use fill-opacity=".72" fill="url(#g)" style="mix-blend-mode:overlay" xlink:href="#p"/><use fill="#000" filter="url(#q)" xlink:href="#p"/></g><g transform="translate(10 31)"><use fill="#000" filter="url(#r)" xlink:href="#s"/><use fill="url(#t)" xlink:href="#s"/><use fill="url(#u)" xlink:href="#s"/><use fill="#000" filter="url(#v)" xlink:href="#s"/></g></g></g></svg>