<svg height="16" viewBox="0 0 13 16" width="13" xmlns="http://www.w3.org/2000/svg"><path d="m0 2.46375287c0-.45325053.35525041-.82175096.79375092-.82175096h3.96875462v-.82075095c0-.45375053.35550042-.82125096.79375093-.82125096h1.58750184c.43775051 0 .79375093.36750043.79375093.82125096v.82075095h3.96875466c.4380005 0 .7937509.36750043.7937509.82175096v.82125095h-12.7000148zm11.9062639 2.46325286v1.64200191 8.48525986c0 .4530005-.3557505.820751-.793751.820751h-9.52501105c-.43825051 0-.79375093-.3680005-.79375093-.820751v-8.48525986-1.64200191-.82100095h11.11251298zm-7.93750928 1.64200191c0-.45350052-.35575042-.82100095-.79375093-.82100095-.43825051 0-.79375092.36750043-.79375092.82100095v6.84300796c0 .4530005.35550041.821251.79375092.821251.43775051 0 .79375093-.3675005.79375093-.821251zm3.17500369 0c0-.45350052-.35575041-.82100095-.79375092-.82100095-.43850051 0-.79375092.36750043-.79375092.82100095v6.84300796c0 .4530005.35525041.821251.79375092.821251.43800051 0 .79375092-.3675005.79375092-.821251zm3.17500369 0c0-.45350052-.35600041-.82100095-.79400092-.82100095-.43825051 0-.79375092.36750043-.79375092.82100095v6.84300796c0 .4530005.35550041.821251.79375092.821251.43800051 0 .79400092-.3675005.79400092-.821251z" fill="#736af2"/></svg>