<svg height="78" viewBox="0 0 72 78" width="72" xmlns="http://www.w3.org/2000/svg" xmlns:xlink="http://www.w3.org/1999/xlink"><filter id="a" height="185.7%" width="109.8%" x="-4.9%" y="-42.9%"><feGaussianBlur in="SourceGraphic" stdDeviation="1"/></filter><g fill="none" fill-rule="evenodd"><path d="m9.85714286 64h52.28571424l4.3571429 7h-61z" fill="#d5d2fb" filter="url(#a)"/><path d="m6 38.5h60v28.7522659c0 1.2413892-1.0080366 2.2477341-2.2515127 2.2477341h-55.49697456c-1.24347615 0-2.25151274-1.0063449-2.25151274-2.2477341z" fill="#736af2"/><path d="m53.9152704 18.5 12.0847296 9h-60l12.0202004-9z" fill="#6260d4"/><path d="m37.35 25.3c0-1.8333333.4833333-3.5 1.45-5 .6-.9333333 1.6833333-2.1166667 3.25-3.55 1.5666667-1.4 2.6333333-2.5166667 3.2-3.35.9666667-1.3333333 1.45-2.8166667 1.45-4.45 0-2.76666667-1.0833333-4.9-3.25-6.4-2-1.36666667-4.6166667-2.05-7.85-2.05-2.6666667 0-5.0166667.61666667-7.05 1.85-2.3666667 1.4-3.55 3.3-3.55 5.7 0 1.23333333.3333333 2.2833333 1 3.15.7333333.9666667 1.7333333 1.45 3 1.45 1.1 0 2-.4 2.7-1.2.6-.6666667.9-1.46666667.9-2.4 0-.53333333-.2666667-1.06666667-.8-1.6-.5666667-.56666667-.85-.98333333-.85-1.25 0-1.4 1.4833333-2.1 4.45-2.1 1.7666667 0 3.1333333.51666667 4.1 1.55.8.8 1.2 1.75 1.2 2.85 0 1.13333333-.3833333 2.2333333-1.15 3.3-.0666667.1-.8333333 1-2.3 2.7-2.5666667 3-3.85 6.6-3.85 10.8z" fill="#b9b5f9"/><path d="m18 18.5v9h-12z" fill="#736af2"/><path d="m54 18.5v8.9933886l12 .0066114z" fill="#736af2"/><g fill="#d5d2fb"><path d="m5.99424864 27.5-5.84723874 12.8550028c-.2222594.4638531-.19087611 1.0092156.08312768 1.4445497.27400378.435334.75231901.6997748 1.2669558.7004475h69.00416292c.5259499 0 1.0133715-.2756588 1.2843935-.726097s.2859956-1.0098679.0394565-1.4741402l-5.7263777-12.7997628z"/><path d="m49.5 77c.2761424 0 .5.2238576.5.5 0 .2564179-.1930201.4677536-.4416894.4966361l-.0583106.0033639h-16.5c-.2761424 0-.5-.2238576-.5-.5 0-.2564179.1930201-.4677536.4416894-.4966361l.0583106-.0033639zm-21.5 0c.2761424 0 .5.2238576.5.5 0 .2564179-.1930201.4677536-.4416894.4966361l-.0583106.0033639h-16.5c-.2761424 0-.5-.2238576-.5-.5 0-.2564179.1930201-.4677536.4416894-.4966361l.0583106-.0033639zm33 0c.2761424 0 .5.2238576.5.5 0 .2564179-.1930201.4677536-.4416894.4966361l-.0583106.0033639h-6.5c-.2761424 0-.5-.2238576-.5-.5 0-.2564179.1930201-.4677536.4416894-.4966361l.0583106-.0033639zm-28.5-3.5c.2761424 0 .5.2238576.5.5 0 .2564179-.1930201.4677536-.4416894.4966361l-.0583106.0033639h-26.5c-.27614237 0-.5-.2238576-.5-.5 0-.2564179.1930201-.4677536.44168944-.4966361l.05831056-.0033639zm33 0c.2761424 0 .5.2238576.5.5 0 .2564179-.1930201.4677536-.4416894.4966361l-.0583106.0033639h-16.5c-.2761424 0-.5-.2238576-.5-.5 0-.2564179.1930201-.4677536.4416894-.4966361l.0583106-.0033639zm-21.5 0c.2761424 0 .5.2238576.5.5 0 .2564179-.1930201.4677536-.4416894.4966361l-.0583106.0033639h-6.5c-.2761424 0-.5-.2238576-.5-.5 0-.2564179.1930201-.4677536.4416894-.4966361l.0583106-.0033639z"/></g></g></svg>