<svg height="16" viewBox="0 0 16 16" width="16" xmlns="http://www.w3.org/2000/svg"><path d="m1.7685588 8.22873931c-.80713671-.34231365-1.0996494-1.13931531-.2800665-1.57160643.81919452-.43269227 2.57389504.0059985 3.13946163.67423116v-6.63553829c0-.38430314.30340538-.69582575.67682738-.69582575h.79352176c.373422 0 .67643901.31152261.67643901.69582575v3.561908c0 .17195688.12214017.31831966.28784674.3439145l3.93843518.61304648c.184802.02871162.3572544-.10203014.3851826-.29201999.0025249-.01717623.0037949-.03452267.0037994-.05189395v-3.62309268c0-.38470429.303017-.69582575.6768274-.69582575h.2567276c.373422 0 .676439.31112146.676439.69582575v14.05648619c0 .3843031-.303017.6958257-.6768274.6958257h-7.01838268-.00000003c-.37380126 0-.67682739-.311532-.67682739-.6958257v-3.6506858c-.56246689-1.71397142-1.51585995-2.85567864-2.85979626-3.42474863zm4.27101418 5.01273839h5.22674112c.186711 0 .3384137.155961.3384137.3479129v.9593604c0 .1919519-.1517027.3479129-.3384137.3479129h-5.22674112-.00000002c-.18690063 0-.33841369-.155766-.33841369-.3479129v-.9597597c0-.1919519.15170269-.3479128.33841369-.3479128z" fill="#666"/></svg>