<svg height="16" viewBox="0 0 16 16" width="16" xmlns="http://www.w3.org/2000/svg"><g fill="none" fill-rule="evenodd"><circle cx="8" cy="8" fill="#ff6e8e" r="8"/><path d="m4.70219204 5.42423839h-.00000001c-1.27648872-.00108384-2.31115558-1.00094455-2.31284094-2.23501578v.00005908c.00164909-1.23407123 1.03629649-2.23395521 2.31277726-2.23507727h-.00000001c1.27671925.00054231 2.31171999 1.00071399 2.31284094 2.23501579v-.00005914c-.00164905 1.23407123-1.03629649 2.23395521-2.31277727 2.23507732zm-3.2998429-2.23501578c0 .62958191.18926019 1.21489634.51486911 1.70970837l-.52097428.50464925-.47620304-.46038177.00000002.00000003c-.19308545-.18650365-.50595619-.18650365-.69904165-.00000005l.00203506-.00098372-.00000001.00000001c-.19291296.18667042-.19291296.48914641.00000002.67581683l.47518552.45939805-.55353517.53514463-.00000001.00000001c-.19291295.18667042-.19291295.48914641.00000002.67581683h-.00000004c.19333029.18690713.50571135.18690713.69802412 0l.55455269-.53612834.42939676.41611429c.1933303.18690713.50672889.18690713.69904166 0l-.00101753.00196744-.00000002.00000002c.19291295-.18667042.19291295-.48914641.00000004-.67581683l-.4304143-.4161143.47416799-.45841433c.57592078.47218644 1.32075119.75844946 2.13273843.75844946h.0000001c1.8206356-.00108388 3.29658363-1.42711893 3.29882537-3.18725842v-.00011972c-.00062911-1.76145368-1.4769656-3.18951023-3.2989526-3.19107035h-.00000015c-1.82039712.00216814-3.29556611 1.42832553-3.29780785 3.18824215z" fill="#fcfdfd" fill-rule="nonzero" transform="translate(4 4.571429)"/></g></svg>