<svg height="120" viewBox="0 0 102 120" width="102" xmlns="http://www.w3.org/2000/svg"><g fill="#fff" fill-rule="evenodd"><path d="m43.451 61.951v11.431 11.431c0 5.396 3.824 7.604 8.498 4.906l19.798-11.431c2.337-1.349 3.506-3.128 3.506-4.906 0-1.778-1.169-3.557-3.506-4.906l-19.798-11.431c-1.354-.781-2.637-1.151-3.776-1.151-2.792 0-4.722 2.224-4.722 6.057"/><path d="m11.981 0c-4.291 2.045-8.308 4.574-11.981 7.515v9.965.114 29.727h.005c.029 7.573 2.922 15.135 8.687 20.901.209.209.433.402.648.603-.179 1.65-.278 3.325-.278 5.022 0 25.391 20.584 45.975 45.975 45.975 25.391 0 45.975-20.584 45.975-45.975 0-25.391-20.584-45.974-45.975-45.974-.898 0-1.789.033-2.675.083-.522-.618-1.057-1.221-1.62-1.784-5.485-5.484-12.596-8.37-19.795-8.664v-.028h-18.966zm1.549 53.853c-.855-2.087-1.29-4.308-1.306-6.532-.032-4.524 1.672-9.058 5.116-12.501 3.706-3.706 8.714-5.382 13.607-5.042 2.128.148 4.229.686 6.196 1.602.687-.259 1.384-.494 2.088-.717-11.92 4.364-21.526 13.524-26.489 25.141.248-.658.508-1.309.788-1.951zm10.869 19.994c0-16.921 13.717-30.638 30.638-30.638 16.921 0 30.638 13.717 30.638 30.638 0 16.922-13.717 30.639-30.638 30.639-16.921 0-30.638-13.717-30.638-30.639z"/></g></svg>