<svg height="107" viewBox="0 0 184 107" width="184" xmlns="http://www.w3.org/2000/svg" xmlns:xlink="http://www.w3.org/1999/xlink"><defs><rect id="a" height="100" rx="4" width="180"/><filter id="b" height="114%" width="106.1%" x="-3.1%" y="-3.5%"><feMorphology in="SourceAlpha" operator="erode" radius="2.5" result="shadowSpreadOuter1"/><feOffset dx="0" dy="5" in="shadowSpreadOuter1" result="shadowOffsetOuter1"/><feGaussianBlur in="shadowOffsetOuter1" result="shadowBlurOuter1" stdDeviation="3.5"/><feColorMatrix in="shadowBlurOuter1" type="matrix" values="0 0 0 0 0.934980752   0 0 0 0 0.837848224   0 0 0 0 0.619300036  0 0 0 1 0"/></filter><filter id="c" height="110%" width="103.9%" x="-1.9%" y="-1.5%"><feGaussianBlur in="SourceAlpha" result="shadowBlurInner1" stdDeviation="1"/><feOffset dx="0" dy="1" in="shadowBlurInner1" result="shadowOffsetInner1"/><feComposite in="shadowOffsetInner1" in2="SourceAlpha" k2="-1" k3="1" operator="arithmetic" result="shadowInnerInner1"/><feColorMatrix in="shadowInnerInner1" type="matrix" values="0 0 0 0 1   0 0 0 0 1   0 0 0 0 1  0 0 0 1 0"/></filter><linearGradient id="d"><stop offset="0" stop-color="#ffd6bb"/><stop offset="1" stop-color="#dce7ff" stop-opacity="0"/></linearGradient><linearGradient id="e" x1="67.856009%" x2="32.038841%" xlink:href="#d" y1="7.701338%" y2="92.992645%"/><linearGradient id="f" x1="70.945565%" x2="28.931091%" xlink:href="#d" y1="7.701338%" y2="92.992645%"/><linearGradient id="g" x1="64.367527%" x2="35.547866%" xlink:href="#d" y1="7.701338%" y2="92.992645%"/><mask id="h" fill="#fff"><use fill="#fff" fill-rule="evenodd" xlink:href="#a"/></mask></defs><g fill="none" fill-rule="evenodd" transform="translate(2)"><use fill="#000" filter="url(#b)" xlink:href="#a"/><use fill="#fefaf1" fill-rule="evenodd" xlink:href="#a"/><use fill="#000" filter="url(#c)" xlink:href="#a"/><g mask="url(#h)" opacity=".26223"><path d="m30.3864098 40.1910091 61.9255863-8.2821684c3.2844634-.4392769 6.3031514 1.8672025 6.7424283 5.1516659.0352629.2636601.0529529.5293734.0529529.7953811v88.1441123c0 3.313708-2.6862915 6-6 6h-59.2011925c-3.2340852 0-5.886249-2.563231-5.9965118-5.795436l-2.7243938-79.8619441c-.1051587-3.0825861 2.1439725-5.7427346 5.2011306-6.1516108z" fill="url(#e)" transform="matrix(.70710678 .70710678 -.70710678 .70710678 106.804307 23.992213)"/><path d="m99.3008947 39.4498389 71.1484133-11.2554821c3.273006-.5177805 6.346046 1.715771 6.863826 4.9887769.075026.4742549.092852.9558012.053097 1.4343052l-7.691799 92.5807431c-.258418 3.11039-2.858292 5.503219-5.979399 5.503219h-59.745382c-3.207352 0-5.8475487-2.52246-5.9937622-5.726478l-3.7112318-81.3252608c-.1393064-3.0526584 2.0379375-5.7223365 5.0562377-6.1998233z" fill="url(#f)" transform="matrix(.70710678 .70710678 -.70710678 .70710678 127.296318 -28.778477)"/><path d="m69.4303405 13.2406167 53.3213305 18.3231982c2.305336.7921994 3.902244 2.9004213 4.040443 5.334154l3.89072 68.5166551c.178641 3.145921-2.106645 5.894041-5.23239 6.292094l-42.6570025 5.432236c-3.2181384.409819-6.1791979-1.812543-6.6846783-5.017049l-14.5550479-92.2720884c-.516322-3.2732362 1.7185985-6.3452802 4.9918348-6.8616022.9677818-.1526584 1.9582237-.0660005 2.8847904.2524023z" fill="url(#g)" transform="matrix(.70710678 .70710678 -.70710678 .70710678 104.181824 -4.801886)"/></g></g></svg>