<svg height="107" viewBox="0 0 184 107" width="184" xmlns="http://www.w3.org/2000/svg" xmlns:xlink="http://www.w3.org/1999/xlink"><defs><rect id="a" height="100" rx="4" width="180"/><filter id="b" height="114%" width="106.1%" x="-3.1%" y="-3.5%"><feMorphology in="SourceAlpha" operator="erode" radius="2.5" result="shadowSpreadOuter1"/><feOffset dx="0" dy="5" in="shadowSpreadOuter1" result="shadowOffsetOuter1"/><feGaussianBlur in="shadowOffsetOuter1" result="shadowBlurOuter1" stdDeviation="3.5"/><feColorMatrix in="shadowBlurOuter1" type="matrix" values="0 0 0 0 0.952   0 0 0 0 0.808   0 0 0 0 0.808  0 0 0 1 0"/></filter><filter id="c" height="110%" width="103.9%" x="-1.9%" y="-1.5%"><feGaussianBlur in="SourceAlpha" result="shadowBlurInner1" stdDeviation="1"/><feOffset dx="0" dy="1" in="shadowBlurInner1" result="shadowOffsetInner1"/><feComposite in="shadowOffsetInner1" in2="SourceAlpha" k2="-1" k3="1" operator="arithmetic" result="shadowInnerInner1"/><feColorMatrix in="shadowInnerInner1" type="matrix" values="0 0 0 0 1   0 0 0 0 1   0 0 0 0 1  0 0 0 1 0"/></filter><linearGradient id="d" x1="5.388042%" x2="84.809207%" y1="63.141739%" y2="47.38714%"><stop offset="0" stop-color="#fbb"/><stop offset="1" stop-color="#dce7ff" stop-opacity="0"/></linearGradient><linearGradient id="e" x1="44.016831%" x2="82.964523%" y1="89.465371%" y2=".070755%"><stop offset="0" stop-color="#dce7ff" stop-opacity="0"/><stop offset="1" stop-color="#fbb"/></linearGradient><mask id="f" fill="#fff"><use fill="#fff" fill-rule="evenodd" xlink:href="#a"/></mask></defs><g fill="none" fill-rule="evenodd" transform="translate(2)"><use fill="#000" filter="url(#b)" xlink:href="#a"/><use fill="#fefbfb" fill-rule="evenodd" xlink:href="#a"/><use fill="#000" filter="url(#c)" xlink:href="#a"/><g mask="url(#f)" opacity=".653158"><path d="m229.5 57-96.5 72 121 35.5z" fill="url(#d)" opacity=".146159" transform="matrix(.77714596 .62932039 -.62932039 .77714596 128.81949 -127.092411)"/><path d="m229.5 15-96.5 72 121 35.5z" fill="url(#d)" opacity=".132929" transform="matrix(.9612617 -.27563736 .27563736 .9612617 4.545794 25.999087)"/><g fill="url(#e)"><path d="m156.5 117-96.5 72 121 35.5z" opacity=".26223" transform="matrix(.81915204 -.57357644 .57357644 .81915204 -60.145998 69.995749)"/><path d="m103.5 108-96.5 72 121 35.5z" opacity=".26223" transform="matrix(.99026807 .1391731 -.1391731 .99026807 39.168154 -37.820044)"/><path d="m184.5 97-96.5 72 121 35.5z" opacity=".26223" transform="matrix(.54463904 -.83867057 .83867057 .54463904 -42.808485 163.188245)"/></g></g></g></svg>