<svg height="24" viewBox="0 0 1024 1024" width="24" xmlns="http://www.w3.org/2000/svg" fill="#333"><path d="m581.8 684.7c-3.5-3.5-9.2-3.5-12.7 0l-130.7 130.7c-60.5 60.5-162.7 66.9-229.5 0-66.9-66.9-60.5-169 0-229.5l130.7-130.7c3.5-3.5 3.5-9.2 0-12.7l-44.8-44.8c-3.5-3.5-9.2-3.5-12.7 0l-130.7 130.7c-95.2 95.2-95.2 249.2 0 344.2s249.2 95.2 344.2 0l130.7-130.6c3.5-3.5 3.5-9.2 0-12.7zm290.9-533.3c-95.2-95.2-249.2-95.2-344.2 0l-130.9 130.7c-3.5 3.5-3.5 9.2 0 12.7l44.7 44.7c3.5 3.5 9.2 3.5 12.7 0l130.7-130.7c60.5-60.5 162.7-66.9 229.5 0 66.9 66.9 60.5 169 0 229.5l-130.7 130.8c-3.5 3.5-3.5 9.2 0 12.7l44.8 44.8c3.5 3.5 9.2 3.5 12.7 0l130.7-130.7c95.1-95.2 95.1-249.4 0-344.5z"/><path d="m622.4 354.9c-3.5-3.5-9.2-3.5-12.7 0l-254.8 254.8c-3.5 3.5-3.5 9.2 0 12.7l44.5 44.5c3.5 3.5 9.2 3.5 12.7 0l254.7-254.7c3.5-3.5 3.5-9.2 0-12.7z"/></svg>