<svg height="16" viewBox="0 0 16 16" width="16" xmlns="http://www.w3.org/2000/svg"><path d="m13 1c1.1045695 0 2 .8954305 2 2v10c0 1.1045695-.8954305 2-2 2h-10c-1.1045695 0-2-.8954305-2-2v-10c0-1.1045695.8954305-2 2-2zm-1.5 10h-5c-.27614237 0-.5.2238576-.5.5s.22385763.5.5.5h5c.2761424 0 .5-.2238576.5-.5s-.2238576-.5-.5-.5zm-7.5 0c-.27614237 0-.5.2238576-.5.5s.22385763.5.5.5.5-.2238576.5-.5-.22385763-.5-.5-.5zm6.5-3h-4c-.27614237 0-.5.22385763-.5.5s.22385763.5.5.5h4c.2761424 0 .5-.22385763.5-.5s-.2238576-.5-.5-.5zm-6.5 0c-.27614237 0-.5.22385763-.5.5s.22385763.5.5.5.5-.22385763.5-.5-.22385763-.5-.5-.5zm8-4h-5c-.55228475 0-1 .44771525-1 1s.44771525 1 1 1h5c.5522847 0 1-.44771525 1-1s-.4477153-1-1-1zm-8 0c-.55228475 0-1 .44771525-1 1s.44771525 1 1 1 1-.44771525 1-1-.44771525-1-1-1z" fill="#666"/></svg>