<svg height="16" viewBox="0 0 16 16" width="16" xmlns="http://www.w3.org/2000/svg"><path d="m14.2097384 3.1257702h-3.7009405l2.0131902-1.50989643v.00000001c.401933-.28104708.4999312-.83471275.2188841-1.23664575-.2810471-.40193301-.8347128-.49993117-1.2366458-.21888408-.0160191.01120117-.031664.02292818-.0469092.03516188l-3.46381209 2.5975476-3.46381213-2.5975476.00000005.00000004c-.38736585-.3008093-.94524045-.23064174-1.24604974.15672412-.3008093.38736585-.23064174.94524044.15672412 1.24604974.00771759.00599311.01553353.01185844.0234448.01759363l2.01319018 1.50989643h-3.70094048-.00000007c-.98089327.00000005-1.77606184.79517161-1.77606184 1.77606184v8.88152477.0000003c0 .9808932.7951716 1.7760618 1.77606184 1.7760618h12.43366366-.0000001c.9808933 0 1.7760618-.7951716 1.7760618-1.7760618v-.0000001-8.88152472c0-.98089327-.7951716-1.77606183-1.7760618-1.77606183zm-3.4105699 6.71951778-3.84249423 2.56126272c-.40893016.2722174-.74042969.0919488-.74042969-.3907832v-5.32335358c0-.48394179.33270903-.66299906.74042969-.39078314l3.84249423 2.55641558c.4089301.27221745.4065112.71502265 0 .9872401z" fill="#666"/></svg>