<svg height="12" viewBox="0 0 8 12" width="8" xmlns="http://www.w3.org/2000/svg"><path d="m7.66530339 3.65737204c0-2.01983768-1.8270466-3.65737204-3.85771242-3.65737204-2.03067905 0-3.80759097 1.63752114-3.80759097 3.65737204 0 1.8728844 3.76505847 6.35737276 3.76505847 6.35737276s3.90024492-4.42189935 3.90024492-6.35737276zm-5.07128354.1293427c0-.69104407.57258239-1.25189929 1.277826-1.25189929.70610299 0 1.27781279.55998262 1.27781279 1.25189929 0 .69190345-.57254274 1.2519654-1.27781279 1.2519654-.70524361-.00083293-1.277826-.56086844-1.277826-1.2519654zm2.50137911 6.33738236c.01090746.0326034.01675122.0667669.01675122.1001504 0 .3455617-.5725824.6260223-1.27786567.6260223-.70523039 0-1.27781279-.2804606-1.27781279-.6260223 0-.03419.00585698-.067547.01668512-.1001504-.7736896.1435687-1.2944979.4148406-1.2944979.7261727 0 .4615378 1.1442922.8346128 2.55563879.8346128 1.41142592 0 2.55569168-.373075 2.55569168-.8346128-.00084616-.3113321-.52166768-.582604-1.29459045-.7261727z" fill="#fff"/></svg>