<svg height="20" viewBox="0 0 123 20" width="123" xmlns="http://www.w3.org/2000/svg"><g fill="none"><g><g transform="translate(0 4.6)"><path d="m29.9469586 3.77c.3192214.45.5586375 1.06.5287105 2.33-.3591241 4-3.7508516 6.53-7.1226277 6.53-3.6510949 0-6.2148419-2.63-7.7610706-5.57-.3690998-.7-.6284672-1.48-.8778589-2.15-.4888078.67-1.5163017 1.75-2.0350365 2.25.1296837.36.5187348 1.44 1.236983 2.56.4090024.64 1.446472 2.1 2.9428224 3.25 1.3467153 1.04 2.6435523 1.69 4.1099756 2.05 2.4939173.62 5.187348.18 7.3021898-1.03 2.653528-1.52 4.5189781-4.33 4.8581509-7.24-.6583942-1.09-2.0749392-2.37-3.1822385-2.98z" fill="#29dcf0"/><path d="m7.63138686 2.71c.95766423 0 1.85547445.28 2.61362534.75.6284671-.68 1.1871046-1.37 1.7656934-2.07-1.236983-.87-2.75328468-1.38-4.37931874-1.38-4.20973236 0-7.63138686 3.42-7.63138686 7.65 0 .4.02992701.79.08978102 1.18 1.05742093.05 1.92530414-.06 2.69343066-.22-.05985402-.31-.08978102-.63-.08978102-.96 0-2.74 2.21459854-4.95 4.9379562-4.95z" fill="#29dcf0"/><g fill="#e1251b"><path d="m7.63138686 15.31c-2.82311435 0-5.28710462-1.54-6.60389294-3.82 1.03746958-.05 2.09489051-.14 3.07250608-.37.89781022.92 2.14476886 1.49 3.53138686 1.49 0 0 3.04257904.23 5.87566914-2.02 0 0 1.0673966 1.53 1.8854014 2.1 0 0-2.6734793 2.62-7.76107054 2.62z"/><path d="m32.829927 2.64c-1.1671533-.85-3.2819951-1.87-5.8158151-1.87-2.5238443 0-5.0576642.99-6.8333333 2.74-1.296837 1.28-1.9253041 2.31-3.3618005 4.04.5486618.83 1.1871046 1.58 1.9053528 2.24.1895377-.27 1.2270073-1.75 2.0150852-2.79.9975669-1.32 2.0250608-2.38 3.5712895-2.99 2.9029197-1.15 5.3270073-.09 6.1350365.36.9177615.51 1.9053528 1.29 2.6734793 2.53.2094891-1.46.0798054-3.03-.2892944-4.26z"/></g></g><path d="m27.3931873.97c-3.6111922-1.52-7.1226277-1.07-10.6041362 1.49-3.0625304 2.26-4.279562 4.53-6.2447689 6.49-2.3442822 2.34-4.10997563 3.12-5.49659364 3.65-1.43649635.55-3.4515815.92-4.95790754.84.1296837.85.42895377 1.77.9377129 2.65 3.85060827-.07 6.5540146-1.54 8.30973236-2.61 1.52627732-.93 3.83065692-3.29 5.03771292-4.81 1.9352798-2.45 4.4591241-4.79 6.7734793-5.52 3.2321168-1.02 6.3744525.41 7.8907542 2.43 2.4639903.67 2.9927008 1.2 3.8805353 1.98-.3291971-1.42-1.8854014-5.05-5.5265207-6.59z" fill="#304ffe"/></g><g fill="#212121" transform="translate(37.708029 4.6)"><path d="m9.07785888.95h6.86326032v1.46h-15.91119219v-1.46h6.82335766v-.95h2.22457421zm-7.12262774 8.06h2.38418492l-2.82311436 4.19h-1.48637469zm7.12262774-1v2.32c0 1.19-.33917275 2.05-1.01751825 2.56-.58856447.44-1.46642336.67-2.64355231.67v-1.46c.52871046-.02.89781022-.14 1.10729927-.35.21946472-.22.32919708-.59.32919708-1.11v-2.63h-5.82579075v-4.62h13.89610708v4.62zm-5.89562044-1.48h9.61654506v-1.68h-9.61654506zm10.80364966 2.48 1.9652068 4.19h-1.5262774l-2.8231143-4.19z"/><path d="m26.5851582 7.38v2.97c0 2.14-1.2270073 3.21-3.6810219 3.21v-1.42c.5386861-.05.9077858-.18 1.1172749-.4.2194647-.23.3291971-.62.3291971-1.16v-3.19h-6.3744526l1.9253042-4.97h-2.5437957v-1.49h3.1124088l.3690997-.93h2.2445256l-.3491484.93h10.5442822v1.47h-11.122871l-1.3666667 3.53h3.5712895v-2.17h2.2245743v2.18h6.0552311v1.44zm-7.2124088 1.43h2.3841849l-2.892944 4.39h-1.5063261zm11.8710462 0 2.0350365 4.39h-1.5262774l-2.9029197-4.39z"/><path d="m40.2817518 4.15c.2493918.4.6284672.73 1.1571776 1 .3890511.2.9177616.39 1.6060828.58v1.23c-1.8754258-.42-3.2021898-1.02-3.9603407-1.79-.7481751.84-2.1148418 1.49-4.1 1.95v-1.25c.7481752-.2 1.3068127-.4 1.6759124-.61.5287105-.29.8978103-.66 1.117275-1.11h-2.9627737v-1.25h3.2221411v-1.02h-1.3467154c-.1596107.21-.329197.42-.5087591.61h-1.4664233c.4987834-.82.9077859-1.65 1.2070559-2.49h1.9951338c-.1097323.2-.2294403.41-.389051.63h5.1075425v1.25h-2.713382v1.02h3.1523115v1.25zm8.8883212 2.89v6.23h-13.0581509v-6.23zm-2.1746959 2.51v-1.25h-8.7187348v1.25zm0 1.16h-8.7187348v1.3h8.7187348zm2.9428224-10.27v5.79h-6.2846715v-5.79zm-4.3892944 4.46h2.503893v-3.12h-2.503893z"/><path d="m58.1381995 10.94v2.6h-1.8055961v-2.34l-4.309489.65v-1.4l.6085158-.09v-8.69h-.5785888v-1.3h6.8233576v1.3h-.7481752v7.9l1.0673966-.16v1.37zm-1.8055961-7.44v-1.83h-1.8953771v1.83zm0 3.1v-1.86h-1.8953771v1.86zm0 3.23v-1.97h-1.8953771v2.24zm9.6265207-8.19h1.4364963v1.39h-3.1024331v2.83h3.4515816v1.39h-3.3418492c.1296837.83.4489051 1.61.9676399 2.35.5386861.78 1.3965937 1.6 2.5737226 2.44v1.53c-1.8654501-.9-3.2819951-2.02-4.2396593-3.35-.1596107-.23-.2793188-.41-.3491484-.53-.0897811.19-.2094891.37-.3491485.56-.9676399 1.42-2.4041362 2.52-4.309489 3.32v-1.53c1.4564477-.87 2.4639903-1.9 3.0126521-3.11.2294403-.54.389051-1.1.4688564-1.68h-3.3817518v-1.39h3.4515815v-2.84h-3.0824818v-1.38h1.416545l-.8978102-1.63h2.2245742l.3990268 1.63h1.9053528l.4189781-1.63h2.2245742z"/><path d="m75.0868613 6.13-2.4839416 5.76h9.556691l-1.6060827-3.72h2.2944039l1.9253041 5.12h-14.8338199l2.7333333-7.16h-3.3119221v-1.47h15.9111922v1.47zm8.9781022-5.77v1.47h-13.5170316v-1.47z"/></g></g></svg>