<svg height="16" viewBox="0 0 16 16" width="16" xmlns="http://www.w3.org/2000/svg"><g fill="none" fill-rule="evenodd"><circle cx="8" cy="8" fill="#317efc" r="8"/><path d="m12 4.40515695v-.02009915c0-.00793388-.0039667-.01586777-.0039667-.02406612.0005442-.00436261-.0009139-.00873722-.0039666-.01190079v-.00793389c0-.00819835-.0039667-.01613224-.0039667-.02406612 0-.00793389-.0039666-.01190087-.0039666-.02009915-.0042311-.00793388-.0042311-.01586777-.0081978-.02380165 0-.00423141 0-.00423141-.0039667-.00819836v-.00899176l-.0118999-.02406613c-.0039667-.00396694-.0039667-.00793388-.0081978-.01190087l-.0118999-.02406612c0-.00396694-.0039667-.00396694-.0039667-.00793389l-.0039667-.00396694c-.0043717-.00744809-.0098059-.01421899-.0161311-.02009914-.0039666-.00396694-.0039666-.00793389-.0079333-.01190079-.0039666-.00396694-.0118999-.01216526-.0158666-.02009914l-.0401955-.0399339c-.0060503-.00483462-.0127206-.00883715-.0198334-.01190079-.0044773-.0051277-.0099702-.00927014-.0161311-.01216533-.0021907 0-.0039666-.00177607-.0039666-.00396695l-.0039667-.00396694c-.0039667-.00396694-.0079333-.00396694-.0118999-.00793388-.0044586-.0042532-.0100675-.00710385-.0161311-.00819836-.0079334-.00396694-.0119-.00793388-.0198334-.01190079-.0079333-.00396694-.0121644-.00396694-.0161311-.00793388h-.00476c-.0021907 0-.0039666-.00177607-.0039666-.00396694l-.0161311.00793388c-.0079334-.00396694-.0119-.00396694-.0198334-.00793388-.0061928-.00318647-.0131587-.00456142-.0200977-.00396695-.0067652-.00096318-.013474-.00228738-.0200977-.00396694h-.0079333c-.0056313.00061496-.0112894-.00089395-.0158667-.00423141-.0039666 0-.0121644-.00396694-.0161311-.00396694-.0158666 0-.028031-.00396694-.0438977-.00396694l-3.36742939.01216526h-.00000002c-.2363067.00109545-.42698237.19356126-.42588706.42988472.00109538.23632347.19354753.42701266.42985422.42591727l2.33953585-.00793388-1.53959431 1.5603299-.00000001-.00000001c-.54461462-.42987691-1.21811926-.66380412-1.91192848-.66406586h-.03993107c-1.70778101.02406613-3.08341514 1.44000163-3.05961838 3.16377205.02406442 1.69996415 1.41186834 3.07993055 3.09954788 3.07993055h.03993106.00000002c.82401174-.0084092 1.60984397-.3486762 2.17981003-.9438672h.00000001c1.05758875-1.0939084 1.17573665-2.78982541.28004634-4.01983657l1.54778961-1.56773664v2.35160106.00005749c-.0000001.23413191.1897881.42393433.4239034.42393433.2341153.00000003.4239043-.18980164.4239043-.42393355 0-.00003837 0-.00007674 0-.00011511v-3.39114647-.00000001c.0032357-.00749389.0045972-.0156633.0039666-.02380165zm-3.3875309 5.95544135h-.00000003c-.38730208.4040744-.9212144.6348186-1.48088364.6400002h-.02803104c-1.1476899 0-2.09149013-.9398982-2.10762287-2.09586538-.01586664-1.17183543.91603474-2.13580553 2.07984957-2.14797039h.02776666c1.14795553 0 2.09175576.94016383 2.10788069 2.09586537l.00000009.00001014c.00536403.56172158-.21011932 1.10307306-.60003076 1.50743576z" fill="#fff" fill-rule="nonzero"/></g></svg>