<svg height="16" viewBox="0 0 16 16" width="16" xmlns="http://www.w3.org/2000/svg"><path d="m8 0c.76052913 0 1.50047034.09539429 2.0901168.2853873.9429406.30446616 1.6157648.86252276 1.6157648 1.80334895 0 .67094047-.2524112 1.38917937-.6625288 2.02712869 2.3235883 1.33114721 3.9566472 4.06498922 3.9566472 6.78411776 0 3.5514438-2.5994643 5.0638532-6.84229443 5.1000173h-.31541114c-4.24283016-.0365679-6.84229443-1.5489648-6.84229443-5.1004085 0-2.66984777 1.5741759-5.35361336 3.83064723-6.70940472l.12600001-.07393058-.07988242-.12878229c-.36276537-.60535689-.58264773-1.27271821-.58264773-1.89873766 0-.94082619.6728242-1.49888279 1.61576478-1.80334895.58964644-.18999301 1.32958765-.2853873 2.09011813-.2853873zm1.67176317 6.33576461-.00000001-.00000001c-.2237774-.21620594-.58068091-.23405697-.8264118-.04133759l-.04694118.04093999-.79841116.77150133-.79882421-.77110447-.04652948-.04093999.00000002.00000001c-.26480461-.20757202-.65379103-.16862394-.86882293.08699177-.18423448.21900442-.18423448.53267836.0000002.75168279l.04200001.0457097.5929412.57196889h-.5678242l-.05929412.00278233h.00000001c-.33952447.03177431-.5880811.32322082-.55516437.65096542.02850249.28379243.26116821.50838636.55516437.53589979l.05929373.00238458h1.02941117v.79495304h-1.02941117l-.05929412.00278233h-.00000002c-.33952446.03177431-.58808109.32322078-.55516436.65096358.02850248.2837924.26116821.5083863.55516436.5358998l.05929412.0027823h1.02941117v1.3911674l.00288235.0572365v.0000001c.0282037.2841632.26111224.5091577.55547126.5365929l.05929412.0023848.05929412-.0027823h.00000001c.29437832-.027225.52746096-.2520515.55588237-.536196l.00247059-.0572366v-1.3911674h1.02941117l.05929412-.0027823h.00000004c.33952445-.0317743.58808105-.3232208.55516435-.6509654-.0285025-.28379247-.2611682-.5083864-.55516435-.53589983l-.05929412-.00278233h-1.02941117v-.79495304h1.02941117l.05929412-.00278233c.29437835-.02722501.52746095-.25205147.55588235-.53619603l.0024706-.05723658-.0028823-.05723657v-.0000001c-.0282037-.2841632-.2611123-.50915771-.55547129-.53659289l-.05929393-.00238484h-.56823532l.5929412-.57236574.0428236-.04491488-.00000001.00000001c.20000764-.23717033.18168629-.58196107-.0424117-.79813161z" fill="#666"/></svg>