<svg height="16" viewBox="0 0 16 16" width="16" xmlns="http://www.w3.org/2000/svg" xmlns:xlink="http://www.w3.org/1999/xlink"><defs><linearGradient id="a"><stop offset="0" stop-color="#4c4f68"/><stop offset="1" stop-color="#252737"/></linearGradient><linearGradient id="b" x1="0%" x2="50%" xlink:href="#a" y1="-4.149306%" y2="100%"/><linearGradient id="c" x1="13.868491%" x2="100%" y1="9.005136%" y2="100%"><stop offset="0" stop-color="#dbc18b"/><stop offset="1" stop-color="#eee5c4"/></linearGradient><path id="d" d="m7.80769231 2c-3.20749989 0-5.80769231 2.60019242-5.80769231 5.80769231s2.60019242 5.80769229 5.80769231 5.80769229 5.80769229-2.6001924 5.80769229-5.80769229-2.6001924-5.80769231-5.80769229-5.80769231z"/><linearGradient id="e" x1="24.837462%" x2="50%" xlink:href="#a" y1="-4.149306%" y2="100%"/></defs><g fill="none" fill-rule="evenodd"><path d="m3.69230769 0h8.61538461c2.0392052 0 3.6923077 1.65310246 3.6923077 3.69230769v8.61538461c0 2.0392052-1.6531025 3.6923077-3.6923077 3.6923077h-8.61538461c-2.03920523 0-3.69230769-1.6531025-3.69230769-3.6923077v-8.61538461c0-2.03920523 1.65310246-3.69230769 3.69230769-3.69230769z" fill="url(#b)"/><g fill-rule="nonzero"><use fill="#d2b986" xlink:href="#d"/><use fill="url(#c)" xlink:href="#d"/></g><path d="m9.43507692 8.86153847c.23787524.0000453.43068719.19289398.43068719.43076923 0 .23787524-.19281195.43072392-.43068719.43076922h-1.00430769v.57353848c0 .2379073-.19286195.4307692-.43076923.4307692s-.43076923-.1928619-.43076923-.4307692v-.57353848h-1.00430769c-.23787524-.0000453-.43068719-.19289398-.43068719-.43076922 0-.23787525.19281195-.43072393.43068719-.43076923h1.00430769v-.71876924h-1.00430769c-.23790728 0-.43076924-.19286195-.43076924-.43076923s.19286196-.43076923.43076924-.43076923h.81846153l-1.11753845-1.11753846c-.13379265-.17067799-.11984169-.41420643.03256688-.56848888.15240857-.15428246.39574836-.17120817.56804849-.03951112l1.13353847 1.13415385 1.10646153-1.10646155c.16494544-.15310948.421448-.14833844.58058553.01079909.15913754.15913754.16390857.4156401.0107991.58058553l-1.11261539 1.11384616h.84553846c.15391857-.00002931.29615773.08206843.37312547.21536093.07696775.1332925.07696775.2975241 0 .4308166-.07696774.1332925-.2192069.21539024-.37312547.21536092h-1v.71138463z" fill="url(#e)"/></g></svg>