<svg height="128" viewBox="0 0 128 128" width="128" xmlns="http://www.w3.org/2000/svg"><g fill="none" fill-rule="evenodd"><path d="m64 0c35.346224 0 64 28.653776 64 64s-28.653776 64-64 64-64-28.653776-64-64 28.653776-64 64-64zm0 19c-24.8528137 0-45 20.1471863-45 45s20.1471863 45 45 45 45-20.1471863 45-45-20.1471863-45-45-45z" fill="#f7f6ff"/><rect fill="#d5d2fb" height="7" rx="3.5" width="17" x="51" y="23"/><path d="m64 0c24.1722564 0 45.214592 13.4007837 56.103062 33.178406l-16.655331 9.1506438c-7.6558783-13.9064056-22.4514164-23.3290498-39.447731-23.3290498z" fill="#fff"/><g fill="#d5d2fb"><rect height="7" rx="3.5" width="22" x="75" y="4"/><rect height="7" rx="3.5" width="33" x="78" y="28"/><rect height="7" rx="3.5" width="20" x="97" y="16"/></g><path d="m68.3262931 66.7786084c0-1.4662894.363096-1.9726167.363096-1.9726167-.0071799.0082666 5.9326031-3.2301752 5.8146732-13.4487362-.1620597-4.0785345-2.6555221-11.3572555-10.3574455-11.3572555h-.4359202c-8.0558118 0-10.194368 7.2715215-10.3564568 11.3582989-.1107751 9.623382 5.8146732 13.4487363 5.8146732 13.4487363s.7179882.8266608.7179882 2.2929502c0 .3347972-.5702863 1.0198921-.947742 1.3174887-3.3068388 2.6566804-15.2090011 5.3360789-15.9792881 11.0669011-.5990038 2.4272806-4.1273954 6.2825999 7.6209072 7.8377646 3.2391456.4236636 7.6332415.6778602 13.5740362.6778602 27.2527263 0 21.6154893-5.3144043 20.8533939-8.4257297-.7764495-5.7308223-12.7750318-8.5001443-16.0829063-11.1568247-.3764346-.3068792-.599009-1.3112709-.599009-1.6388372z" style="stroke:#d5d2fb;stroke-width:2.095238;opacity:.9;stroke-linecap:round;stroke-linejoin:round;stroke-dasharray:4;fill-rule:nonzero"/></g></svg>