<svg height="83" viewBox="0 0 126 83" width="126" xmlns="http://www.w3.org/2000/svg"><g fill="none" fill-rule="evenodd"><path d="m99.5815721 62.3536851v-.0001216c0 2.6827645-2.1747849 4.8575981-4.8575494 4.8576711h-15.6698948v1.0968816l.0000001.000001c.0661467 1.8884918-1.0634318 3.6142142-2.8206224 4.3092302h9.7936386-.0000002c2.6828131-.0000001 4.857671 2.1748579 4.857671 4.857671l.0000001-.0000047c-.0418522 2.5959331-2.1801952 4.6664158-4.7761283 4.6245685-.0271856-.0004383-.0543669-.0011125-.0815408-.0020224h-59.1534362-.0000001c-2.704442.3431895-5.1750276-1.5709772-5.5182195-4.2754191-.3431895-2.704442 1.5709773-5.1750276 4.2754192-5.5182195.4126121-.0523599.830187-.0523599 1.2428003 0h5.4844084l-.0000005-.0000002c-1.6869267-.7787422-2.7818753-2.4515099-2.8206223-4.3091086l-.0000002-.0000088c-.0328406-1.8601519 1.0909316-3.545802 2.8206345-4.2309336h-9.793517.0000001c-3.2582322.0002826-5.9116476-2.6181941-5.9545527-5.8761345l-.0000001-.0000041c-.0341017-.9493279.2408215-1.8840785.7834546-2.6637861h-5.8761346-.0000001c-2.70797988-.0846737-4.85899624-2.3050807-4.85767103-5.0143858l-.00000004-.0000031c-.02119442-1.8756531 1.09318449-3.578154 2.82062239-4.3092301h-4.54424151-.00000018c-2.69574906.0003411-4.89319627-2.1621408-4.93608943-4.8575495v.0000153c.04180102-2.6391786 2.21516121-4.744761 4.85433977-4.7029623.02724952.0004316.05449491.0010963.08173312.0019939h23.03451551.0000001c.9519284.0000671 1.7236677-.7715691 1.7237407-1.7234975 0-.0000811 0-.0001621 0-.0002432v-.0000002c.0433095-.9509424-.6924725-1.7569438-1.6434138-1.8002501-.0267577-.0012186-.0535401-.0018134-.0803256-.0017838h-8.6967569l-.0000003-.0000001c-2.3799731-1.1413746-3.3840538-3.9959952-2.2426744-6.3759683.7904648-1.6482647 2.4518746-2.7012444 4.2798446-2.7125147h23.5045382-.0000001c.647159.0492939 1.2117443-.4353704 1.2610371-1.0825294.0063338-.0831541.0037983-.1667462-.0075636-.2493636l.0000001-.0000006c.0447889-.647486-.4437934-1.2086853-1.0912794-1.2534749-.0540009-.0037354-.1081954-.0037354-.1621967.0000001h-3.7607894l-.0000002-.0000001c-.9659634-.5389115-1.565263-1.557786-1.5669043-2.6639076v-1.5671476.0001212c.0000002-1.6442284 1.3328656-2.9772156 2.977094-2.9772156h47.0093195c1.6442648 0 2.9772642 1.3328292 2.9773372 2.977094v.0001216 1.5670259-.0000008c-.0602623 1.0892964-.6442715 2.0819719-1.5671475 2.6637861h-8.6178525.0000001c-.6429706-.0884989-1.2359432.3609898-1.3244403 1.0039604-.0113838.0827067-.0139218.1663912-.0075711.249636v.0000003c-.0933008.6422922.351745 1.2386058.9940359 1.3319052.1120717.0162797.2259088.0162745.3379787-.0000155h16.8447083-.0000002c2.6828134-.0000001 4.8576714 2.1748579 4.8576714 4.857671v.0000093c.03284 1.8601518-1.090933 3.545802-2.820635 4.2309336h19.273848c2.69536.0428257 4.857671 2.2401456 4.857671 4.935846 0 2.6828131-2.174858 4.857671-4.857671 4.857671h-21.4674898l.0000001.0000001c.9908689.5523216 1.5941987 1.6081195 1.5670257 2.7422042v-.0000005c.075402 1.1257505-.54642 2.1827848-1.5670257 2.6637861h10.5770907c1.644338-.0000001 2.977337 1.3329993 2.977337 2.9773371 0 1.6443377-1.332999 2.9773371-2.977337 2.9773371h-15.6697732-.0000001c-.9951897.0000001-1.8019643.806726-1.8020373 1.8019158v-.0000009c.0419468.964535.8365905 1.7246526 1.8020373 1.7237407h2.0370486l.0000003.0000001c2.2171308.5517296 3.7501147 2.5739274 3.6824927 4.857671zm16.0103289-11.3367415v-.0001211c0-1.6442648 1.332938-2.9772156 2.977215-2.9772156h.000122 2.977337c1.665954-.2692709 3.234767.8629682 3.50404 2.5289312.26927 1.6659544-.862969 3.2347675-2.528932 3.5040397-.322943.0521978-.652172.0521978-.975117.0000001h-2.977337c-1.566904.3133079-2.977215-1.0970033-2.977215-3.0556338zm-15.9979159-31.9613102v.000049c-.0005725-1.6574196 1.3202949-3.0131177 2.9771669-3.0556824h3.212349-.000001c1.656873.0425351 2.977763 1.3982141 2.977216 3.0556337v.0001216c0 1.6442648-1.332951 2.9772156-2.977216 2.9772156-.00004 0-.000081 0-.000121 0h-2.898919v-.0000001c-1.586199.2174007-3.0483025-.8922309-3.2657093-2.4784274-.0226521-.1652751-.0309958-.3321963-.024938-.4989061zm-79.9369617 0v.000049c-.0005724-1.6574196 1.3202945-3.0131177 2.977167-3.0556824h3.0555121-.0000001c1.6569211.0424703 2.9778842 1.3981655 2.9773373 3.0556337v.0001216c0 1.6442648-1.332951 2.9772156-2.9772158 2.9772156-.000081 0-.0001621 0-.0002431 0h-3.055342.0000002c-1.6875589-.0073452-3.0496521-1.3813391-3.0423383-3.0689101.0009271-.2061973.022694-.4117744.0649975-.6135888z" fill="#d5d2fb"/><path d="m34.6666667 40.0192104v-.0000017c.0210562 4.7864467 2.5661988 9.1951818 6.6708252 11.555379l-.0000014-.0000008c4.1306669 2.344995 9.1655126 2.344995 13.2961513.0000016l.0000003-.0000002c6.3166401-3.5955538 8.5642149-11.7052578 5.0200158-18.1134667-2.3573491-4.2623427-6.8284509-6.8703398-11.6454168-6.7927715h.0000006c-7.3180308-.0510303-13.2912925 5.9260681-13.341575 13.350209v.0006308z" fill="#b9b5f9" fill-rule="nonzero"/><path d="m9.62475002 30.2679822-1.56690437 2.8987974-1.64532254-2.898919-2.82062239-1.7236191 2.82062239-1.5670259 1.56690437-2.9772156 1.56702595 2.9772156 3.21222687 1.5670259zm104.54844098-18.6667882-1.567026 2.9773371-1.880334-3.0556337-3.13393-1.56702597 3.13393-1.56690437 1.566904-3.05563373 1.567026 3.05563373 3.055634 1.56690437zm4.988971 14.6411924-.925687 1.7478962-.881502-1.7478962-1.763072-.8963767 1.763072-.9859517.881502-1.7031087.925687 1.7031087 1.763072.9859517zm-47.1828561-21.61972672-1.0967601 2.03704863-1.0968817-2.03704863-2.1937634-1.09688169 2.1937634-1.25359644 1.0968817-2.27218155 1.0968817 2.27218155 2.0370486 1.25347486zm-34.5097088 10.43153372-1.0970032 2.1937634-1.2534749-2.1937634-2.1938849-.9401669 2.1937633-1.2534749 1.2535965-2.1938849 1.0968817 2.1937633 2.0371702 1.2535965zm71.9000809 45.4537501-.444444.8253898-.507894-.8253898-.825439-.4444444.82539-.5078943.507943-.8889381.444444.8888889.888889.5079435z" fill="#b9b5f9"/><path d="m34.6666667 49.8178423v-.000003c.0363542 8.1458358 4.4306222 15.6488616 11.5173873 19.6655738l-.0000024-.0000013c7.1317249 3.9908402 15.8245427 3.9908402 22.9562189.0000026l.0000007-.0000003c10.9058757-6.1191093 14.7863834-19.9206457 8.6672133-30.8264849-4.0700365-7.253887-11.7895329-11.6923187-20.1061745-11.5603087h.0000011c-12.6348078-.0868461-22.94783 10.0853056-23.0346444 22.7201134v.0010735z" fill="#fff" fill-rule="nonzero"/><path d="m96.0826094 37.9143217c-1.493714.6873407-3.2618187.0336442-3.9491509-1.4600733-.0162447-.0353028-.0317968-.0709204-.0466472-.106832l.0000002.0000003c-.8944716-1.3278566-.5431424-3.1294198.7847178-4.0238853.02545-.0171436.0511704-.0338819.0771517-.0502087h.0000001c1.4937141-.6873407 3.2618188-.0336441 3.949151 1.4600733.0162447.0353028.0317968.0709204.0466471.106832l.0000001.0000001c.8681948 1.3665186.4852771 3.1763248-.8619919 4.0740973zm-73.8125759-9.9742337v.0000001c-.0133239.4171847.1588338.8188413.4701442 1.0968817.3393768.1959396.7575049.1959396 1.0968817 0 .3913577-.2259257.6308152-.6450119.6267374-1.0968817v-.0000004c.0133545-.4171652-.1587572-.8188194-.4700226-1.0968817h-.0000001c-.3277429-.2353858-.7691387-.2353858-1.0968817 0h.0000001c-.4378494.176233-.6972761.6301793-.626859 1.0968817zm1.4537819 27.3019644v.0000001c-1.1427083-.4026779-1.7426218-1.6554622-1.3399415-2.7981669.0026426-.007499.0053259-.0149837.0080499-.0224536v.0000002c.2728368-1.1661864 1.4040742-1.9203332 2.5854895-1.7236191l-.0000001-.0000001c1.1205007.4375138 1.6797049 1.6957412 1.2535964 2.8206224v.0000001c-.2709159 1.1318926-1.3533516 1.87603-2.5071929 1.7236191zm49.2361939-37.4400192v-.0000003c-.1758744-.8031029.3325963-1.5967154 1.1356993-1.772591.0647105-.0141711.1302945-.024007.1963153-.0294419.8617487 0 1.8803338 0 2.0370486.8618704v-.0000001c.1379844.8543738-.4427636 1.6588421-1.2971337 1.7968216-.0115653.0018678-.0231511.0036059-.0347553.0052139-.7447938.3481219-1.6307817.0265565-1.9788976-.7182375-.0219088-.046873-.0413589-.0948563-.0582711-.1437545zm13.1931018 60.4564249.0000001-.0000003c-.3367228 1.0107932-1.3954543 1.5913782-2.4287747 1.3318931l-.0000002-.0000001c-1.0254579-.224637-1.7480564-1.1442705-1.7237407-2.1937633l.0000001-.0000002c.3695149-1.0220938 1.4534108-1.5978947 2.5071929-1.331893h.0000001c1.0322153.1973658 1.7448711 1.1475751 1.6453225 2.1937634z" fill="#f7f6ff"/><path d="m35.2935337 55.3022507-.0000002-.0000007c1.1498851 4.8664004 3.9109389 9.201235 7.8348866 12.3007099-.626859-2.0370486-1.1752998-4.0740972.7834522-5.4844084s1.1752999-3.2122269 1.8020373-5.4059903 3.4473598-2.2721816 3.4473598-6.1895641 1.9586305-3.4473598 2.7422042-6.1112674c.7835738-2.6639077-.3917261-2.5071929 0-4.7792529.7834522-.8618703-9.1667796 0-9.1667796 0l-.0000009.0000005c-1.2004362.6379081-2.1827118 1.6201801-2.8206223 2.8206224-.3917261 1.8019157 0 2.036927-1.8020373 4.2306904s0 3.4473598-1.4103112 5.0143858l-.0000002.0000002c-.9490398.9541387-1.4597329 2.2592212-1.4103112 3.6040745z" fill="#b9b5f9"/><path d="m40.3077979 41.3560977h-.0000001c-.3530653-.0568951-.6504307-.2947792-.7834522-.6267385 0 0 0-.7835737.6267375-.7835737l-.0000078.0000014c4.3690833-.8220959 8.796889-1.2937052 13.24112-1.4103112.3867244-.045972.7374931.2302613.7834656.6169856.0065779.0553348.0065736.1112544-.0000129.1665882v-.0000004c-.0403615.4018998-.3796582.7072407-.7835738.7051556h.0000005c-4.3910404.0764707-8.7678682.5220024-13.0842837 1.331893z" fill="#736af2"/><path d="m80.0307932 55.145536.0000005-.0000019c-1.1786858 4.8759322-3.9325434 9.227034-7.8348866 12.3791281.6267374-2.1154667 1.1751783-4.1525154-.7835738-5.5628266-1.958752-1.4103112-1.1751782-3.2122269-1.8020373-5.4059903-.626859-2.1937633-3.4473598-2.2721815-3.4473598-6.1112674s-1.9586304-3.525778-2.663786-6.1895641c-.7051556-2.663786 0-2.4287747 0-4.7792528-.7835738-.8618704 8.9317682 0 8.9317682 0l.0000007.0000003c1.1817751.6628353 2.1577882 1.6388424 2.8206223 2.8206224l-.0000001.0000043c-.0681259 1.593834.5611032 3.1383436 1.7236191 4.230812 1.4886078 1.5669044 0 3.4473598 1.4886078 5.0142642l.0000001.0000001c1.1055502.8533622 1.6969448 2.2135442 1.5670259 3.6040745z" fill="#b9b5f9"/><path d="m74.9381109 41.1993835h.0000096c-4.3010114-.7189353-8.6468368-1.1377722-13.0059871-1.2534748-.4018998-.0403617-.7072394-.3796582-.7051662-.7835738 0-.5483193 0-.7834522.7051662-.7834522h-.0000012c4.4237693.026525 8.8335936.4990167 13.1625803 1.4103112h-.0000001c.3550969.1000695.6071232.4150521.6268591.7834522-.1447053.3231035-.4364622.556499-.7834522.6267374zm-9.1669012-8.0697779c-1.5687281.1326337-3.0594391-.7059277-3.7606678-2.1154668-.171134-.2039031-.171134-.5012526.0000001-.7051557.203903-.171134.5012526-.171134.7051556.0000001.7051556 1.4887293 2.8205008 1.4103112 2.8205008 1.4103112s.4799116-.2860262.7051556.3917261c.1501627.4518348-.0065521.7913631-.4701443 1.0185851zm-16.43818 0c1.5687281.1326337 3.0594392-.7059277 3.7606678-2.1154668.171134-.2039031.171134-.5012526-.0000001-.7051557-.203903-.171134-.5012526-.171134-.7051556.0000001-.7051556 1.4887293-2.8205008 1.4103112-2.8205008 1.4103112s-.4799116-.2860262-.7051556.3917261c-.1501627.4518348.0065521.7913631.4701443 1.0185851z" fill="#736af2"/></g></svg>