<svg height="128" viewBox="0 0 129 128" width="129" xmlns="http://www.w3.org/2000/svg"><g fill="none" fill-rule="evenodd"><circle cx="64" cy="64" r="64"/><g stroke="#d5d2fb"><path d="m64 126c34.2416545 0 62-27.7583455 62-62s-27.7583455-62-62-62-62 27.7583455-62 62 27.7583455 62 62 62z" stroke-dasharray="5 10" stroke-linecap="round" stroke-width="3"/><path d="m87.1766638 43.0528329c.3702083-.0355459.7166281-.0528329 1.0416631-.0528329 2.6037585 0 3.8521115 1.1067502 5.2819256 2.7827347 1.4297677-1.6759718 2.6787854-2.7827347 5.282209-2.7827347.32495 0 .6713672.0172872 1.0416348.0528329 2.2531517.2164469 4.8586367 2.2455628 5.1759037 6.1339955v1.2941662c-.295522 3.7216867-3.151594 6.7595841-11.499781 12.5190054-8.3479292-5.7594213-11.204749-8.7973187-11.500219-12.5190054v-1.2941662c.3179497-3.8884479 2.9234731-5.9175575 5.1766509-6.1339955z" fill-rule="nonzero" stroke-width="2" transform="matrix(.90630779 .42261826 -.42261826 .90630779 31.15899 -34.54912)"/><path d="m47 76c0 18.7776815 15.2223185 34 34 34" stroke-linecap="round" stroke-width="2" transform="matrix(.70710678 .70710678 .70710678 -.70710678 -47.015765 113.506097)"/></g><g fill="#d5d2fb" fill-rule="nonzero" transform="matrix(.70710678 -.70710678 .70710678 .70710678 13.372583 55.828427)"><path d="m15.4048771 8.79999948h-3.6097559c-.3252032 0-.5951219-.17979797-.5951219-.39999998s.2666667-.39999998.5951219-.39999998h3.6097559c.3252033 0 .5951219.17979797.5951219.39999998s-.2699186.39999998-.5951219.39999998z"/><path d="m34.5410179 8.79702147h-16.1016379c-.3929751 0-.6825357-.2799323-.6825357-.58964463 0-.33949237.3240321-.58964464.6825357-.58964464h14.2712012l-8.2455829-6.37888287h-13.6955272l-8.24558291 6.38186088h5.66366754c.39297511 0 .68253571.2799323.68253571.58964463 0 .33949237-.3240321.58964464-.68253571.58964464h-7.49410421c-.28611346 0-.53775541-.15485617-.64461706-.40203044-.10686166-.24717426-.0344715-.49434853.1792518-.6492047l9.78990614-7.59390817c.1447803-.0923181.2861135-.15485617.4653653-.15485617h14.2332825c.1792518 0 .3240321.06253807.4653653.15485617l9.7899061 7.58795217c.2137233.15485616.2861135.43478847.1792518.6492047-.0723901.25015227-.3240321.40500843-.6101455.40500843z"/><path d="m17.5633572 27.1999996c-.1788232 0-.3576464-.0610189-.5020804-.1801487-.1788232-.153997-16.13191222-18.16002504-16.84720485-18.79344671-.28542927-.24116514-.28542927-.60436564 0-.84553077s.71529263-.24116513 1.00072191 0c.68090356.57530959 13.59055994 15.91980438 16.38295234 18.36922858l16.3829524-18.33726694c.2510402-.24116513.7152926-.24116513 1.0007219-.02905604.2854293.2121091.2854293.60436564.0343891.84553077l-16.8815939 18.78763551c-.2132122.1220354-.3920354.1830543-.5708585.1830543z"/><path d="m17.6543656 28c-.257054 0-.5141081-.124899-.623268-.3092712l-9.74340377-19.234186c-.07394704-.12489731-.10915992-.30926953-.07394704-.43416685l2.48955058-7.57710357c.10915993-.30926953.51410803-.49364176.88032203-.43416685.3662139.09218612.5845338.43416685.514108.74343638l-2.41912482 7.3302827 9.63424382 19.01710259c.183107.2795321.0739471.6482765-.2922669.8029113-.1478941.0624486-.257054.0951615-.3662139.0951615z"/><path d="m17.5036585 28c-.1091926 0-.2183852-.0297258-.3311001-.0624224-.3311001-.1545656-.4755161-.5261176-.2923544-.8025523l9.6371264-19.0086006-2.4198486-7.35970211c-.1091926-.30913127.1091925-.64798669.5142618-.74310401.3663235-.09214489.7678705.0921449.8805854.43397274l2.4867731 7.57668848c.0352234.15456564.0352234.30913127-.0739692.43397275l-9.7427966 19.22261455c-.1479383.1842898-.4050692.3091329-.6586778.3091329z"/></g><path d="m72 0c24.1722564 0 45.214592 13.4007837 56.103062 33.178406l-16.655331 9.1506438c-7.655878-13.9064056-22.4514164-23.3290498-39.447731-23.3290498z" fill="#fff"/></g></svg>