<svg height="128" viewBox="0 0 128 128" width="128" xmlns="http://www.w3.org/2000/svg"><g fill="none" fill-rule="evenodd"><circle cx="64" cy="64" r="64"/><path d="m64 126c34.2416545 0 62-27.7583455 62-62s-27.7583455-62-62-62-62 27.7583455-62 62 27.7583455 62 62 62z" stroke="#d5d2fb" stroke-dasharray="5 10" stroke-linecap="round" stroke-width="3"/><path d="m64 0c24.1722564 0 45.214592 13.4007837 56.103062 33.178406l-16.655331 9.1506438c-7.6558783-13.9064056-22.4514164-23.3290498-39.447731-23.3290498z" fill="#fff"/><g transform="translate(30 23)"><path d="m65.1441336 68.7249485.4620154 5.6167105c.2786248 3.3872353-2.2414018 6.359002-5.6286371 6.6376268-.1678107.0138036-.3361173.0207142-.5044948.0207142h-52.79218805c-3.39867538 0-6.15384615-2.7551708-6.15384615-6.1538462 0-.1683775.00691055-.336684.02071421-.5044948l4.1761395-50.7692308c.26258911-3.1922897 2.93006043-5.6493513 6.13313189-5.6493513h44.4399091c3.2030715 0 5.8705428 2.4570616 6.1331319 5.6493513l2.3736665 28.8566083" stroke="#d5d2fb" stroke-linecap="round" stroke-linejoin="bevel" stroke-width="4.615385"/><g fill="#d5d2fb"><path d="m33.0769231 0c9.7711917 0 17.6923077 7.92111597 17.6923077 17.6923077 0 .8496688-.6887927 1.5384615-1.5384616 1.5384615-.8496688 0-1.5384615-.6887927-1.5384615-1.5384615 0-8.07185404-6.5435306-14.61538462-14.6153846-14.61538462-8.0718541 0-14.6153846 6.54353058-14.6153846 14.61538462 0 .8496688-.6887927 1.5384615-1.5384616 1.5384615-.8496688 0-1.5384615-.6887927-1.5384615-1.5384615 0-9.77119173 7.9211159-17.6923077 17.6923077-17.6923077z" stroke="#d5d2fb"/><rect height="3.076923" rx="1.538462" width="18.461539" x="20" y="56.384615"/><rect height="3.076923" rx="1.538462" width="27.692308" x="20" y="62.538462"/><rect height="3.076923" rx="1.538462" width="26.153846" x="20" y="68.692308"/><path d="m49.3577043 35.1177899c-4.2762151-2.1432158-9.5975614-1.1763503-12.82069 2.6588768-3.1114257 3.6821412-3.3188562 8.8790162-.8536483 12.7464972.6143085 0 1.2525478-.1047437 1.906744-.3061735 2.6088108-.7815492 5.3213601-2.9408803 7.515296-5.5997337 2.1939544-2.6588769 3.8055141-5.7689723 4.1804829-8.4520174.0265934-.2363444.0460954-.4726896.0585095-.7042599zm21.5645938 29.4732544c.0319121 1.9095582-.9174712 2.9569908-2.7444399 3.2551095l-20.0487802-13.6086274c2.7683706-1.7645254 5.1298587-4.6812374 6.3505066-7.7510399zm-33.6432969-12.1825091c3.2470548-1.0877208 6.4781433-3.641853 9.0231497-6.7277568 2.3216051-2.803905 4.100703-6.1073558 4.8187268-9.1771583 1.906744 2.3688157 2.6806123 5.3983394 2.2577774 8.3069891-1.1647894 3.537113-4.1884613 7.1950907-7.5551883 8.7581983-2.711251.8044301-5.687208.502458-8.2290473-.9700679z"/></g></g></g></svg>