<svg height="128" viewBox="0 0 128 128" width="128" xmlns="http://www.w3.org/2000/svg"><g fill="none" fill-rule="evenodd"><circle cx="64" cy="64" r="64"/><path d="m64 126c34.2416545 0 62-27.7583455 62-62s-27.7583455-62-62-62-62 27.7583455-62 62 27.7583455 62 62 62z" stroke="#d5d2fb" stroke-dasharray="5 10" stroke-linecap="round" stroke-width="3"/><path d="m70 0c24.1722564 0 45.214592 13.4007837 56.103062 33.178406l-16.655331 9.1506438c-7.655878-13.9064056-22.4514164-23.3290498-39.447731-23.3290498z" fill="#fff"/><path d="m72.5 85.2505116v6.375059l.0074923.0037616.0582732.0295377c.1720448.0876882.6681998.3440928 1.3286299.715935l.3431646.1952943c1.4214971.8176828 3.3935376 2.0615968 4.63744 3.3055108 1.9893617 1.9893801-1.6084201 2.1163618-2.0758165 2.124467h-25.598367c-.4673964-.0081052-4.0651782-.1350869-2.0758165-2.124467 1.2439024-1.243914 3.2159429-2.487828 4.63744-3.3055108l.3431646-.1952943c.6604301-.3718422 1.1565851-.6282468 1.3286299-.715935l.0657655-.0332993v-6.375059zm21.25-55.2505116c2.55 0 4.25 1.7000157 4.25 4.2500394v44.6254132c0 2.5500236-1.7 4.2500393-4.25 4.2500393h-59.5c-2.55 0-4.25-1.7000157-4.25-4.2500393v-44.6254132c0-2.5500237 1.7-4.2500394 4.25-4.2500394zm-4.25 4.2500394h-51c-2.55 0-4.25 1.7000157-4.25 4.2500393v29.7502755c0 2.5500236 1.7 4.2500393 4.25 4.2500393l9.2842121.0004975c-3.4070442-3.6176799-5.4838351-8.4847724-5.4308914-13.8055675.1124267-10.921791 9.0576-19.7419242 20.0772258-19.7419242h.0344533c.6600516 0 .8395716.9066768.2302933 1.1623565-5.2840382 2.2159147-9.0177164 7.3640299-9.1355742 13.3952342-.1632 8.459265 6.8797805 15.3772002 15.391561 15.1233533l.0036488-.0000478c4.9490719-.1416479 9.5068781-2.7247879 12.1711102-6.8979733.3554134-.556698 1.2203742-.2248555 1.1133857.424324-.656054 3.9615668-2.4865402 7.5300481-5.1244363 10.3405795l12.3850117-.0008322c2.55 0 4.25-1.7000157 4.25-4.2500393v-29.7502755c0-2.5500236-1.7-4.2500393-4.25-4.2500393zm-15.2700862 15.732657.0398821.1046465c.0960259.2913498.086396.6072085-.0272.8921696l-2.1560529 6.9269798c-.0225293.0736482-.0014623.1537034.0543999.206722.0543999.0544004.1323733.0725339.2067201.0471472l3.1824-1.0336083.01632-.0036267c.683748-.1709383 1.1747814.0403933 1.4701556.6325216l.0602987.1327127c.0042539.0100433.0078873.0203383.0108799.0308268.1813333.728968-.0797867 1.2330798-.7797342 1.517774l-.01632.00544-6.2451094 2.0291375-.0163199.0036267c-.6853097.1717501-1.1329647.0151544-1.3458617-.4697872l-.0449641-.1177381c-.0374294-.1351478-.0509765-.2754237-.0403944-.4145549l.0186344-.1385174.0116786-.0993939-.0007987-.1000746c-.0039961-.030396-.0015244-.0612934.0072534-.0906673l2.1578657-6.8037021c.017235-.0549804.0100965-.1137251-.0178442-.1621959l-.0347423-.0445261c-.0546091-.0531867-.1340567-.0720035-.2067202-.0489605l-2.7435729.8921696.0036281.0018446-.01632.00544c-.68544.169246-1.1765862-.0406189-1.470494-.6325441l-.0599602-.1326901c-.0045434-.0105527-.0081831-.021472-.01088-.0326403-.1813333-.7253382.0779734-1.2330798.7797342-1.5159611l.01632-.00544 6.0927868-1.9856198.0199466-.00544c.5473465-.1255395.9092834.0115883 1.084385.4085298zm4.077923-7.5521037.0347239.08422c.0538942.1667218.0474758.3470825-.0181334.5095505l-1.1786657 3.7971565c-.0234345.0729677-.0037988.1529138.0507733.206722.0543998.0525871.1359998.0725339.2085334.0471472l1.6537586-.5367521.0181334-.00544c.3720948-.0913928.6428445.0155043.8135679.32069l.053205.1090726c.0045858.0117803.0082241.0239078.01088.0362671.0997333.4098167-.04896.6945148-.4442658.8558995l-.0181333.00544-3.5595729 1.1569178-.0181333.00544c-.3769932.0946568-.6291366.0130561-.753787-.2448023l-.0368246-.092481c-.0191532-.0685022-.0274693-.1393544-.0248459-.2100086l.0121526-.1055143.0060931-.0515073.0011603-.0518535c-.002519-.0256171-.0000559-.0514798.0072533-.0761608l1.1786658-3.711926c.0172349-.0549804.0100964-.1137251-.0178442-.1621959l-.0347424-.0445261c-.054768-.0542462-.1353465-.0731646-.2085334-.0489605l-1.4017072.4551514-.0163204.0054397c-.3737264.0913927-.6446394-.0155043-.8140575-.3220117l-.0527154-.1095639c-.0051159-.010515-.0093612-.0214316-.0126934-.0326403-.09792-.4098167.04896-.6963278.4442658-.8577164l.0181334-.00544 3.4743471-1.1297162c.0071341-.0022607.0144013-.0040775.0217599-.0054401.2981927-.0676985.4989591.0021491.603569.2095427z" fill="#d5d2fb"/></g></svg>