<svg height="16" viewBox="0 0 16 16" width="16" xmlns="http://www.w3.org/2000/svg" xmlns:xlink="http://www.w3.org/1999/xlink"><linearGradient id="a" x1="50%" x2="50%" y1="0%" y2="100%"><stop offset="0" stop-color="#ff981c"/><stop offset="1" stop-color="#d65e11"/></linearGradient><linearGradient id="b" x1="50%" x2="50%" y1="0%" y2="100%"><stop offset="0" stop-color="#ffc681"/><stop offset="1" stop-color="#ee7a30"/></linearGradient><g fill="none" transform="translate(.000044 .727395)"><path d="m4.6031813 8.11142533h-.06235385c-1.21595299-.92421153-1.92579295-2.36699275-1.915964-3.89428186-.00250018-.65747905.13266443-1.30820013.39679727-1.91029547-1.32685157.4216452-2.1828026 1.70830552-2.05896429 3.09502245.12383832 1.38671693 1.19423248 2.50134838 2.57480075 2.68121222-2.14546542.44712824-3.64468135 2.39153673-3.53149578 4.58017433h1.43980728c.41826687-1.866634 1.55187738-3.49479987 3.15737262-4.53482606z" fill="url(#a)"/><path d="m8.35574986 8.27014425c2.02168604-.29043959 3.53022134-2.01069912 3.55416994-4.05300078-.0001352-2.32910362-1.8882846-4.21714347-4.21738825-4.21714347-2.32910361 0-4.21725304 1.88803985-4.21738821 4.21714347.02222748 2.03488752 1.51880129 3.75246422 3.53149578 4.05300078-2.72656417.38546021-4.83525828 3.04967055-4.83525828 6.27506555h11.01395876c0-3.225395-2.1086941-5.88960534-4.82958974-6.27506555z" fill="url(#b)"/><path d="m11.773875 8.08308267c1.373146-.17920429 2.441227-1.28186292 2.5766058-2.66001989.1353789-1.37815697-.6977243-2.66757239-2.0097525-3.11054626.2590755.59951195.3922045 1.24586306.3911287 1.89895841-.003969 1.54007803-.7379694 2.98704742-1.9783179 3.8999504 1.603783 1.0417955 2.7368522 2.66918397 3.1573727 4.53482607h1.4001275c.1166003-2.1858896-1.3778703-4.13038599-3.5201587-4.58017432z" fill="url(#a)"/></g></svg>