<svg width="24" height="24" viewBox="0 0 24 24" version="1.1" xmlns="http://www.w3.org/2000/svg" xmlns:xlink="http://www.w3.org/1999/xlink"><title>qr-code 二维码</title><g id="红人智选" stroke="none" stroke-width="1" fill="none" fill-rule="evenodd"><g id="红人详情-直播数据分析" transform="translate(-1141.000000, -851.000000)" fill="#736AF2" fill-rule="nonzero"><g id="编组-2" transform="translate(293.000000, 658.000000)"><g id="编组-5" transform="translate(755.000000, 193.000000)"><g id="qr-code-二维码" transform="translate(93.000000, 0.000000)"><path d="M9.59019462,13.183009 C10.3087575,13.183009 10.7877994,13.6620509 10.7877994,14.3806138 L10.7877994,22.7638473 C10.7877994,23.4824102 10.3087575,23.9614521 9.59019462,23.9614521 L1.20696108,23.9614521 C0.488398204,23.9614521 0.00935627807,23.4824102 0.00935627807,22.7638473 L0.00935627807,14.3806138 C0.00935627807,13.6620509 0.488398204,13.183009 1.20696108,13.183009 L9.59019462,13.183009 Z M18.5722305,21.5662425 C19.2907934,21.5662425 19.7698353,22.0452844 19.7698353,22.7638473 C19.7698353,23.4824102 19.2907934,23.9614521 18.5722305,23.9614521 L14.3806138,23.9614521 C13.6620509,23.9614521 13.183009,23.4824102 13.183009,22.7638473 C13.183009,22.0452844 13.6620509,21.5662425 14.3806138,21.5662425 L18.5722305,21.5662425 Z M23.6021707,21.9255239 C23.8416916,22.1650449 23.9614521,22.5243263 23.9614521,22.7638473 C23.9614521,23.1231287 23.8416916,23.3626497 23.6021707,23.6021707 C23.3626497,23.8416916 23.1231287,23.9614521 22.7638473,23.9614521 C22.4045659,23.9614521 22.1650449,23.8416916 21.9255239,23.6021707 C21.686003,23.3626497 21.5662425,23.1231287 21.5662425,22.7638473 C21.5662425,22.4045659 21.686003,22.1650449 21.9255239,21.9255239 C22.4045659,21.446482 23.1231287,21.446482 23.6021707,21.9255239 Z M8.39258982,15.5782186 L2.40456588,15.5782186 L2.40456588,21.5662425 L8.39258982,21.5662425 L8.39258982,15.5782186 Z M18.5722305,13.183009 C19.2907934,13.183009 19.7698353,13.6620509 19.7698353,14.3806138 L19.7698353,17.3746257 L21.5662425,17.3746257 L21.5662425,14.3806138 C21.5662425,13.6620509 22.0452844,13.183009 22.7638473,13.183009 C23.4824102,13.183009 23.9614521,13.6620509 23.9614521,14.3806138 L23.9614521,18.5722305 C23.9614521,19.2907934 23.4824102,19.7698353 22.7638473,19.7698353 L18.5722305,19.7698353 C17.8536677,19.7698353 17.3746257,19.2907934 17.3746257,18.5722305 L17.3746257,15.5782186 L15.5782186,15.5782186 L15.5782186,18.5722305 C15.5782186,19.2907934 15.0991766,19.7698353 14.3806138,19.7698353 C13.6620509,19.7698353 13.183009,19.2907934 13.183009,18.5722305 L13.183009,14.3806138 C13.183009,13.6620509 13.6620509,13.183009 14.3806138,13.183009 L18.5722305,13.183009 Z M6.11714071,17.3746257 C6.35666166,17.3746257 6.59618263,17.6141467 6.59618263,17.8536677 L6.59618263,19.2907934 C6.59618263,19.5303144 6.35666169,19.7698353 6.11714071,19.7698353 L4.68001496,19.7698353 C4.44049401,19.7698353 4.20097306,19.5303144 4.20097306,19.2907934 L4.20097306,17.8536677 C4.20097306,17.6141467 4.44049401,17.3746257 4.68001496,17.3746257 L6.11714071,17.3746257 Z M9.59019462,0.00935627807 C10.3087575,0.00935627807 10.7877994,0.488398204 10.7877994,1.20696108 L10.7877994,9.59019462 C10.7877994,10.3087575 10.3087575,10.7877994 9.59019462,10.7877994 L1.20696108,10.7877994 C0.488398204,10.7877994 0.00935627807,10.3087575 0.00935627807,9.59019462 L0.00935627807,1.20696108 C0.00935627807,0.488398204 0.488398204,0.00935627807 1.20696108,0.00935627807 L9.59019462,0.00935627807 Z M22.7638473,0.00935627807 C23.4824102,0.00935627807 23.9614521,0.488398204 23.9614521,1.20696108 L23.9614521,9.59019462 C23.9614521,10.3087575 23.4824102,10.7877994 22.7638473,10.7877994 L14.3806138,10.7877994 C13.6620509,10.7877994 13.183009,10.3087575 13.183009,9.59019462 L13.183009,1.20696108 C13.183009,0.488398204 13.6620509,0.00935627807 14.3806138,0.00935627807 L22.7638473,0.00935627807 Z M8.39258982,2.40456588 L2.40456588,2.40456588 L2.40456588,8.39258982 L8.39258982,8.39258982 L8.39258982,2.40456588 Z M21.5662425,2.40456588 L15.5782186,2.40456588 L15.5782186,8.39258982 L21.5662425,8.39258982 L21.5662425,2.40456588 Z M6.11714071,4.20097306 C6.35666166,4.20097306 6.59618263,4.44049401 6.59618263,4.68001496 L6.59618263,6.11714071 C6.59618263,6.35666166 6.35666169,6.59618263 6.11714071,6.59618263 L4.68001496,6.59618263 C4.44049401,6.59618263 4.20097306,6.35666169 4.20097306,6.11714071 L4.20097306,4.68001496 C4.20097306,4.44049401 4.44049401,4.20097306 4.68001496,4.20097306 L6.11714071,4.20097306 Z M19.2907934,4.20097306 C19.5303144,4.20097306 19.7698353,4.44049401 19.7698353,4.68001496 L19.7698353,6.11714071 C19.7698353,6.35666166 19.5303144,6.59618263 19.2907934,6.59618263 L17.8536677,6.59618263 C17.6141467,6.59618263 17.3746257,6.35666169 17.3746257,6.11714071 L17.3746257,4.68001496 C17.3746257,4.44049401 17.6141467,4.20097306 17.8536677,4.20097306 L19.2907934,4.20097306 Z" id="形状结合"/></g></g></g></g></g></svg>