<svg height="16" viewBox="0 0 15 16" width="15" xmlns="http://www.w3.org/2000/svg"><path d="m306.462733 495h-11.927684c-.847383 0-1.535049.735196-1.535049 1.637989v12.724022c0 .905028.687666 1.637989 1.535049 1.637989h11.929902c.847383 0 1.535049-.735196 1.535049-1.637989v-12.724022c-.002218-.905028-.689885-1.637989-1.537267-1.637989zm-1.195652 4.896089c-.39929 2.473743-2.420142 4.30838-4.764863 4.30838-2.349157 0-4.376663-1.843575-4.769299-4.306145-.403726-.174302-.687666-.592179-.687666-1.083799 0-.64581.492458-1.17095 1.098048-1.17095s1.098048.522905 1.098048 1.17095c0 .174302-.037711.339665-.102041.487151-.044366.160894-.110914.312849-.230701.440223.339397 1.881565 1.827861 3.197766 3.59583 3.197766 1.774622 0 3.274179-1.338548 3.595829-3.195531-.11535-.118436-.181899-.263687-.226264-.417877-.070985-.156425-.115351-.328492-.115351-.513966 0-.645811.492458-1.17095 1.098048-1.17095s1.098048.525139 1.098048 1.17095c-.002218.49162-.286158.909497-.687666 1.083798z" fill="#736af2" transform="translate(-293 -495)"/></svg>