<svg height="64" viewBox="0 0 33 64" width="33" xmlns="http://www.w3.org/2000/svg"><path d="m25.2844055 7.09532076c-.5676282.14190704-.9933512.28381408-1.4190704.42572112-.4257212.14190704-.9933512.14190704-1.4190704.14190704-.8514448 0-1.5609769 0-2.2705152-.28381408l-.2838141-.28381408.1419071-.42572112c.141907-.70953833.5676281-1.41907041 1.277164-1.98669607l1.277164-.85144474c.4257211-.28381408.9933511-.56762816 1.5609768-.70953207 2.5543279-.70953833 4.8248368-.28381408 5.6762816.56762816l.2838141.28381408-.1419071.42572112c-.7095321 1.13525757-2.554328 1.98669606-4.6829304 2.69623439zm-1.4190704 2.69623438c-.5676282-.56762816-1.1352576-.99335115-1.7028833-1.13525757-.5676281-.14190704-1.277164-.28381408-1.986696-.28381408-.7095321 0-1.4190704.28381408-2.1286025.70953833-.7095321.28381408-1.4190704.99335118-2.1286025 1.70288318.9933512 0 1.7028832.1419071 2.4124216.4257212l1.7028832.8514447c.5676282.2838141 1.1352576.2838141 1.8447897.2838141.4257211 0 .8514447-.141907 1.2771639-.2838141.2838141-.141907.4257212-.141907.7095321-.2838141 0-.283814.4257211-.283814.7095321-.4257211l.9933511-.4257211c-.709532-.2838141-1.1352575-.7095383-1.7028832-1.13525758m-2.8381408-7.52107125c.1419071-.85144474.4257211-1.4190704.9933512-2.27051515l-1.5609768.56762817c-.5676282.14190704-.9933512.42572112-1.4190705.56762816-.4257211.28381408-.709532.42572112-.9933511.70953832-.7095321.42572112-1.1352576.85144474-1.5609768 1.13525757-.7095383.85144474-.9933512 1.4190704-1.1352576 2.12860248-.141907.70953833 0 1.27716399 0 1.98669606 0 .70953833 0 1.56097682-.2838141 2.55432797.7095384-.56762816 1.4190704-1.27716398 2.1286025-1.70288323.7095321-.56762816 1.277164-1.13525757 1.8447896-1.70288323.5676282-.56762816.9933512-1.13525757 1.277164-1.84478965.2838141-.70953832.5676282-1.4190704.7095321-2.12860247m-10.0753955 13.76495353c.9933599-.2838141 1.702892-.4257211 2.4124303-.2838141.7095384.141907 1.277164.2838141 1.8447897.2838141 1.1352576.141907 2.1286087-.2838141 4.2572112-1.9866961 0 0 .141907-.141907.4257211-.2838141.1419071-.141907.4257211-.283814.4257211-.283814-.4257211-.1419071-.709532-.1419071-.9933511-.2838141-.2838141-.1419071-.5676282-.2838141-.9933512-.4257211-.7095321-.2838141-1.277164-.5676282-1.986696-.5676282-.7095384 0-1.277164.141907-1.9866961.4257211-.141907 0-.5676282.2838141-.8514447.4257211l-.8514448.8514448c-.2838141.2838141-.5676281.5676281-.8514447.9933511-.2838141.2838141-.5676282.7095384-.8514448 1.1352576m2.554328-9.64969872v-1.13525757c0-.42572112.1419071-.85144474.4257211-1.27716399 0 0-.141907 0-.283814.14190704l-.4257212.42572112c-.2838141.14190704-.7095383.42572112-.7095383.42572112-1.7028832 1.41907041-2.55432797 2.55432798-3.12195363 3.54767913-.56762816.85144474-.56762816 1.70288327-.56762816 2.27051517.14190704.7095383.42572112 1.277164.56762816 1.986696.28381408.7095384.42572112 1.5609769.42572112 2.554328.28381411-.4257211.56762821-.8514447.85144471-1.1352576.2838141-.4257211.7095384-.8514447.8514448-1.1352575.2838141-.4257212.4257211-.7095384.7095383-1.1352576.141907-.2838141.4257211-.7095383.5676282-.9933512.283814-.7095383.5676281-1.41907036.7095383-2.12860244.141907-.85144474.141907-1.56097681 0-2.41242155m-5.53437646 16.17739449c.851446-.5676288 1.56097807-.8514454 2.27051636-.9933518.7095384-.1419071 1.277164-.1419071 1.8447897-.2838141.5676281-.141907 1.1352576-.4257211 1.7028832-.8514447.2838141-.2838141.5676282-.5676282.8514448-.9933512.283814-.4257211.7095383-.8514447 1.1352575-1.4190704 0 0 .1419071-.2838141.2838141-.4257211.141907-.1419071.2838141-.4257211.2838141-.4257211-.8514448.141907-1.277164 0-2.1286025-.1419071-1.4190704-.2838141-2.8381408 0-3.8314919.9933512-.2838141.4257211-.56762821.7095383-.85144479.9933511-.28381408.2838141-.42572112.7095384-.70953832.9933512-.14190704.4257211-.42572112.8514447-.56762816 1.277164-.14190704.4257211-.28381409.8514447-.28381409 1.277164m-.28381408-9.9335116c-.42572112-.7095383-.56762816-1.4190704-.42572112-2.4124216 0 0-.28381408.2838141-.56762816.7095384-.14190704.283814-.42572112.7095383-.42572112.7095383-1.27716398 1.8447896-1.84478964 3.1219536-1.98669606 4.2572112-.28381408.9933512 0 1.7028832.14190704 2.4124216.28381408.5676281.70953833 1.1352575.99335116 1.7028832.42572112.5676281.85144474 1.277164 1.13525757 2.2705151.14190704-.4257211.42572112-.9933511.56762816-1.4190704.14190704-.5676281.28381408-.9933511.42572112-1.4190704.14190704-.4257211.28381408-.8514447.28381408-1.277164.14190704-.4257211.14190704-.7095383.28381408-1.1352575.28381408-1.4190704.14190704-2.9800473-.42572112-4.3991177m-1.13525757 17.1707738c1.27716398-1.5609806 2.55432797-1.702887 3.68958558-2.1286063.5676281-.283814.9933511-.5676281 1.4190704-1.2771639.283814-.2838141.4257211-.7095384.5676281-1.1352576.2838141-.5676282.5676282-1.1352576.7095383-1.8447897 0 0 .1419071-.283814.1419071-.5676281l.2838141-.5676282c-.7095384.2838141-1.277164.4257211-1.9866961.5676282-1.41907039.141907-2.69623438.7095383-3.54767287 1.986696-.28381408.4257212-.42572112.7095384-.56762816.9933512-.14190704.4257211-.28381408.7095383-.42572112 1.1352576-.14190704.4257211-.14190704.8514447-.28382533 1.277164zm-2.83812955-9.5077611c-.56762816-.5676281-.85144474-1.1352576-.99335116-2.2705151 0 0-.14190704.4257211-.28381408.7095383l-.28381408.8514447c-.28381408.9933512-.56762816 1.8447897-.70953833 2.6962344-.14190704.7095384-.14190704 1.4190704-.14190704 1.8447897 0 .9933511.42572112 1.7028832.85144474 2.2705151.85144475.9933512 1.98669607 1.5609768 3.12195364 3.2638601.14190704-.5676282.14190704-.9933512.14190704-1.4190704 0-.4257212.14190704-.9933512.14190704-1.4190704v-1.277164-1.1352576c-.28381408-1.5609768-.85144474-2.9800472-1.84478965-4.1153048m3.26386005 16.745027c.99335116-1.8447971 2.27051514-2.2705226 3.12195366-2.9800547.4257211-.4257211.7095383-.8514448 1.1352575-1.5609768 0-.4257212.1419071-.8514448.2838141-1.277164 0-.5676282.1419071-1.1352576.2838141-1.8447897v-.5676281c0-.2838141.141907-.5676282.141907-.5676282-.5676281.5676282-1.1352575.7095383-1.8447896.9933512-1.4190704.4257211-2.41242156 1.4190704-2.98004722 2.8381408-.14190704.283814-.28381408.709532-.28381408 1.1352575 0 .4257212-.14190704.8514448-.14190704 1.277164v1.277164c.14190704.2838141.14190704.7095321.28381408 1.277164m-4.96674328-8.5144474c-.70953833-.4257211-1.13525757-.9933512-1.56097682-1.8447897 0 0 0 .4257212-.14190704.8514448 0 .4257211-.14190704.8514447-.14190704.8514447 0 .9933512-.14190704 1.9866961 0 2.6962344.14190704.7095321.14190704 1.4190704.28381408 1.8447897.28381408.9933511.85144474 1.5609768 1.27716399 1.986696.99335116.7095321 2.27051514.9933512 3.83149196 2.554328 0-.5676282-.14190704-.9933512-.14190704-1.4190704 0-.4257211-.14190704-.9933512-.14190704-1.4190704-.14190704-.4257211-.14190704-.8514447-.28381408-1.277164-.14190704-.4257211-.14190704-.7095321-.28381408-1.1352576-.70953833-1.7028832-1.4190704-2.8381408-2.69623439-3.6895855m7.23725842 15.4678961c.42572112-1.9866992 1.56097682-2.6962375 2.27051512-3.6895887.4257211-.4257211.5676282-.9933511.7095383-1.7028832v-1.277164c0-.5676281-.141907-1.1352575-.283814-1.8447896 0 0 0-.2838141-.1419071-.5676282v-.5676281c-.2838141.283814-.4257211.5676281-.7095383.8514447-.4257211.141907-.5676282.2838141-.9933512.4257211-1.27716394.8514448-1.98669601 1.9866961-2.12860243 3.4057665v1.1352576c0 .4257211.14190704.8514447.14190704 1.1352575l.42572112 1.277164c.14190704.5676282.42572112.9933512.70953833 1.4190704m-7.09532076-7.0953207c-.42572112-.1419071-.70953833-.2838141-.99335116-.5676282l-.85144474-.8514447s0 .4257211.14190704.8514447c0 .4257211.14190704.8514447.14190704.8514447.14190704.9933512.28381408 1.9866961.56762816 2.6962344.28381408.7095321.56762816 1.277164.85144474 1.7028833.56762817.8514447 1.13525758 1.2771639 1.70288324 1.5609768 1.13525757.5676281 2.41242155.4257211 4.2572112 1.5609768-.14190704-.4257211-.28381408-.9933512-.56762816-1.4190704-.14190704-.4257211-.28381408-.8514448-.56762816-1.277164-.14190704-.4257211-.42572112-.7095321-.56762816-1.1352576-.14190704-.5676281-.42572112-.8514447-.56762816-1.1352575-.99335116-1.277164-1.98669606-2.2705152-3.54767288-2.8381408m10.9268252 13.0554664c0-.9933649.1419071-1.702897.4257211-2.4124353l.8514448-1.7028832c.2838141-.5676282.2838141-1.1352576.141907-1.8447897 0-.4257211-.141907-.8514447-.2838141-1.277164-.141907-.4257211-.283814-.9933511-.7095383-1.7028832l-.2838141-.5676282c-.141907-.283814-.141907-.5676281-.141907-.5676281-.1419071.4257211-.2838141.7095321-.5676282.9933511-.141907.2838141-.4257211.5676282-.7095383.8514448-.9933512 1.1352575-1.4190704 2.4124215-1.277164 3.8314919 0 .4257212.1419071.7095321.2838141 1.1352576.141907.4257211.2838141.7095321.5676282 1.1352576.141907.4257211.4257211.8514447.7095383 1.1352575.2838141.2838141.5676281.7095321.9933511.9933512m-8.65632253-4.9667433c-.42572112 0-.70953833-.141907-1.13525757-.2838141-.28381408-.141907-.56762816-.283814-.99335116-.709532l.28381408.8514447c.14190704.4257211.28381408.7095321.28381408.7095321.42572112.9933511.85144474 1.8447896 1.27716399 2.4124215.42572112.5676282.85144474 1.1352576 1.27716398 1.5609769.70953833.709532 1.4190704.9933511 2.12860873 1.1352575.70953833.1419071 1.27716399 0 1.98669606 0 .70953834 0 1.56097684 0 2.55432794.2838141-.283814-.4257211-.5676281-.8514447-.8514447-1.1352576-.2838141-.4257211-.5676282-.709532-.8514447-1.1352575-.2838141-.2838141-.56762821-.7095321-.85144479-.9933512l-.85144474-.8514447c-1.4190704-.9933512-2.55432797-1.5609768-4.2572112-1.8447897m14.19070903 9.6497012c-.4257261-.9933536-.4257261-1.7028857-.4257261-2.412424 0-.7095321.283814-1.277164.283814-1.8447897.1419121-1.1352575-.283814-2.1286024-1.986696-4.2572112 0 0-.1419071-.141907-.2838141-.4257211s-.2838141-.4257211-.2838141-.4257211c-.141907.8514447-.2838141 1.277164-.7095383 1.9866961-.7095383 1.2771639-.7095383 2.6962344-.141907 3.9733983.141907.2838141.283814.7095321.5676281.9933512l.8514448.8514447c.283814.2838141.5676281.5676282.9933511.8514448.2838141.2838141.7095321.4257211 1.1352576.709532m-9.79157391-2.2705151c-.70953833.141907-1.41907041.141907-2.41242156-.2838141 0 0 .28381408.2838141.42572112.7095321.28381408.2838141.56762816.7095321.56762816.7095321.70953833.8514447 1.27716399 1.5609768 1.98669606 1.986696.56762816.4257212 1.13525753.8514448 1.56097683 1.1352576.9933511.5676282 1.7028832.5676282 2.4124215.4257211.7095384-.141907 1.277164-.4257211 1.8447897-.5676281.7095383-.2838141 1.4190704-.4257211 2.554328-.5676282l-1.277164-.8514447c-.4257211-.2838141-.7095383-.5676282-1.1352576-.8514448-.4257211-.2838141-.7095383-.4257211-1.1352576-.5676281-.283814-.1419071-.7095383-.4257212-.9933511-.5676282-1.4190704-.7095321-2.8381408-.9933368-4.39911764-.7095321m16.46121164 4.9667433c-1.277169-1.5609768-1.1352626-2.8381408-1.4190754-3.9733984-.141907-.283814-.141907-.5676281-.2838141-.8514447-.141907-.141907-.141907-.2838141-.283814-.4257211-.1419071-.1419071-.1419071-.2838141-.2838141-.4257211-.2838141-.2838141-.5676282-.5676282-.9933512-.8514448-.4257211-.2838141-.8514447-.7095321-1.4190704-.9933511 0 0-.2838141-.1419071-.4257211-.2838141-.141907-.1419071-.4257211-.2838141-.4257211-.2838141.141907.8514447.141907 1.277164 0 2.1286025-.2838141 1.4190704.141907 2.8381408 1.1352575 3.8314919.2838141.2838141.5676282.5676282.8514448.7095321.2838141.2838141.7095321.4257211.9933511.5676282l1.277164.4257211c.2838141.2838141.7095321.2838141 1.277164.4257336m-9.9335115.8514323c-.7095384.4257211-1.4190704.5676281-2.4124216.4257211 0 0 .2838141.2838141.7095383.5676281.2838141.1419071.5676282.4257212.5676282.4257212.9933511.5676281 1.7028832 1.1352575 2.554328 1.2771639.709532.2838141 1.4190704.4257212 1.8447896.5676282.2838141 0 .5676282.141907.7095321.141907h.5676281c.4257212-.141907.7095321-.141907.9933512-.283814 1.1352576-.5676282 1.8447896-1.5609769 3.831492-2.4124216-.4257212-.141907-.9933512-.2838141-1.4190704-.4257211l-1.277164-.4257211c-.4257212-.1419071-.8514448-.1419071-1.277164-.2838141-.4257211-.1419071-.8514448-.1419071-1.1352576-.1419071-1.4190704-.283814-2.8381408-.141907-4.2572112.5676282m17.0288323-.2838141c-1.7028832-1.277164-1.8447896-2.554328-2.554328-3.4057664-.283814-.4257212-.709532-.9933512-1.4190704-1.277164-.283814-.1419071-.709532-.2838141-1.1352575-.4257211-.4257211-.1419071-.9933512-.4257212-1.7028833-.5676282l-.9933511-.2838141c.4257211.7095321.4257211 1.277164.5676282 1.9866961.141907.709532.4257211 1.4190704.709532 1.986696.4257211.5676282.8514448 1.1352576 1.5609768 1.4190704.5676282.2838141 1.4190704.5676282 2.1286025.7095321.9933512 0 1.8447897 0 2.8381508-.141907m-9.2239582 3.8314919c-.5676282.5676282-1.1352576.9933512-2.1286025 1.1352576l.8514448.2838141.8514447.2838141c1.1352576.283814 1.9866961.4257211 2.6962344.5676281.7095321 0 1.4190704 0 1.986696-.141907.9933512-.1419071 1.7028833-.4257211 2.1286025-.9933512.8514448-.9933511 1.277164-2.1286025 2.9800472-3.4057664-4.1153048-.2838141-6.9534456 0-9.3658859 2.2705151" fill="#fff"/></svg>