<svg height="52" viewBox="0 0 230 52" width="230" xmlns="http://www.w3.org/2000/svg" xmlns:xlink="http://www.w3.org/1999/xlink"><defs><path id="a" d="m2 0h224c1.104569 0 2 .8954305 2 2v40c0 1.1045695-.895431 2-2 2h-9.62641c-.246925 0-.491714.0457255-.721988.1348638l-11.78918 4.5635535c-.588164.2276765-1.249534-.0645566-1.47721-.652721-.134123-.3464844-.091304-.736558.114788-1.0456963.591148-.8867215.351538-2.0847711-.535184-2.6759188-.316976-.2113173-.68941-.3240812-1.070367-.3240812h-198.894449c-1.1045695 0-2-.8954305-2-2v-40c0-1.1045695.8954305-2 2-2z"/><filter id="b" height="112.4%" width="102.6%" x="-1.3%" y="-4%"><feMorphology in="SourceAlpha" operator="erode" radius="1" result="shadowSpreadOuter1"/><feOffset dx="0" dy="3" in="shadowSpreadOuter1" result="shadowOffsetOuter1"/><feGaussianBlur in="shadowOffsetOuter1" result="shadowBlurOuter1" stdDeviation="1.5"/><feColorMatrix in="shadowBlurOuter1" type="matrix" values="0 0 0 0 0.405027959   0 0 0 0 0.550740796   0 0 0 0 0.874547101  0 0 0 0.500327797 0"/></filter><filter id="c" height="108.4%" width="101.8%" x="-.9%" y="-2%"><feGaussianBlur in="SourceAlpha" result="shadowBlurInner1" stdDeviation=".5"/><feOffset dx="0" dy="1" in="shadowBlurInner1" result="shadowOffsetInner1"/><feComposite in="shadowOffsetInner1" in2="SourceAlpha" k2="-1" k3="1" operator="arithmetic" result="shadowInnerInner1"/><feColorMatrix in="shadowInnerInner1" type="matrix" values="0 0 0 0 0.944245427   0 0 0 0 0.961921552   0 0 0 0 1  0 0 0 1 0"/></filter></defs><g fill="none" fill-rule="evenodd" transform="translate(1)"><use fill="#000" filter="url(#b)" xlink:href="#a"/><use fill="#e2ebff" fill-rule="evenodd" xlink:href="#a"/><use fill="#000" filter="url(#c)" xlink:href="#a"/></g></svg>