<svg height="40" viewBox="0 0 40 40" width="40" xmlns="http://www.w3.org/2000/svg"><g fill="none" fill-rule="evenodd"><circle cx="20" cy="20" fill="#000" fill-opacity=".45" r="20"/><path d="m20.0839286 23.8411023c.2297438.2118439.6023071.2118834.8320938 0l5.8193312-5.3656188c.4598956-.4240631.3050724-.7675217-.3454209-.7675217h-3.5340688v-5.6239485c0-.5987855-.5272146-1.0840133-1.1775576-1.0840133h-2.3566829c-.6502572 0-1.1776007.4853068-1.1776007 1.0839738v5.623988h-3.5339828c-.6505793 0-.8051877.3436561-.3454424.7675217l5.8193526 5.3656385zm6.7734256 3.1588977h-13.7147084c-.6306875 0-1.1426458.4477267-1.1426458 1 0 .5524009.5115625 1 1.1426458 1h13.7147084c.6306458 0 1.1426458-.4477267 1.1426458-1 0-.5524009-.5115625-1-1.1426458-1z" fill="#fff" fill-rule="nonzero" transform="matrix(1 0 0 -1 0 40)"/></g></svg>