<svg height="62" viewBox="0 0 62 62" width="62" xmlns="http://www.w3.org/2000/svg"><path d="m1700 337c17.12083 0 31 13.879173 31 31s-13.87917 31-31 31-31-13.879173-31-31 13.87917-31 31-31zm.5 39.5c-4.51701 0-5.9671-1.908619-8.62628-.834461-3.95718 1.598483-7.36781 4.266087-9.87372 7.644908 4.40223 5.308498 11.04777 8.689553 18.48299 8.689553s14.08075-3.381055 18.48393-8.689817c-2.46789-3.326647-5.81252-5.963898-9.69223-7.570075-2.70854-1.121319-4.25768.759892-8.77469.759892zm-.5-27.5c-6.07513 0-11 4.924868-11 11s4.92487 11 11 11 11-4.924868 11-11-4.92487-11-11-11z" fill="#bfbfbf" fill-rule="evenodd" transform="translate(-1669 -337)"/></svg>