<svg height="16" viewBox="0 0 16 16" width="16" xmlns="http://www.w3.org/2000/svg"><path d="m6.7000078 3.66665935-2.26665889-2.66665935h-2.56667486l2.26667451 2.66665935zm6.6666796 0-2.2666745-2.66665935h-2.56665922l2.26665892 2.66665935zm-3.333332 0-2.26667449-2.66665935h-2.56667486l2.26667451 2.66665935zm4.300005-2.66665935h-2.4666747l2.2666745 2.66665935h1.2000014v-1.66665935c0-.56667137-.4333443-1-1.0000012-1zm-13.23335912 0h-.10000128c-.56665575 0-1 .43332863-1 1v1.66665935h3.36667579zm-1.10000128 13.6666722c0 .5666725.43334425 1.0000011 1 1.0000011h13.3333604c.5666569 0 1.0000012-.4333286 1.0000012-1.0000011v-10.3333402h-15.3333616zm5.33334996-7.33333671c0-.56667253.46665679-.83332909 1-.83332909.1666576 0 .36665784.03332816.53332991.13332828l3.80000443 2.20000256c.6666657.3666723.6666657 1.30000156 0 1.66666916l-3.80000443 2.2000072c-.16667207.1000001-.33332852.1333283-.53332991.1333283-.53334321 0-1-.2666722-1-.8333355z" fill="#666"/></svg>